<mxfile host="Electron" agent="Mozilla/5.0 (Windows NT 10.0; Win64; x64) AppleWebKit/537.36 (KHTML, like Gecko) draw.io/25.0.2 Chrome/128.0.6613.186 Electron/32.2.5 Safari/537.36" version="25.0.2">
  <diagram name="Страница — 1" id="kYw0LMLWnuJBPaseJhKa">
    <mxGraphModel dx="3771" dy="629" grid="1" gridSize="12" guides="1" tooltips="1" connect="1" arrows="1" fold="1" page="1" pageScale="1" pageWidth="827" pageHeight="1169" math="0" shadow="0">
      <root>
        <mxCell id="0" />
        <mxCell id="1" parent="0" />
        <mxCell id="MByqHcUUkSX6mI2JCgvQ-67" value="void loop()" style="ellipse;whiteSpace=wrap;html=1;" parent="1" vertex="1">
          <mxGeometry x="-2308.75" y="110" width="120" height="40" as="geometry" />
        </mxCell>
        <mxCell id="MByqHcUUkSX6mI2JCgvQ-81" style="edgeStyle=none;curved=1;rounded=0;orthogonalLoop=1;jettySize=auto;html=1;exitX=0.5;exitY=1;exitDx=0;exitDy=0;entryX=0.5;entryY=0;entryDx=0;entryDy=0;fontSize=12;startSize=8;endSize=8;" parent="1" source="MByqHcUUkSX6mI2JCgvQ-68" target="MByqHcUUkSX6mI2JCgvQ-70" edge="1">
          <mxGeometry relative="1" as="geometry" />
        </mxCell>
        <mxCell id="MByqHcUUkSX6mI2JCgvQ-68" value="state" style="rhombus;whiteSpace=wrap;html=1;" parent="1" vertex="1">
          <mxGeometry x="-2323.75" y="190" width="150" height="90" as="geometry" />
        </mxCell>
        <mxCell id="MByqHcUUkSX6mI2JCgvQ-69" value="" style="endArrow=classic;html=1;rounded=0;fontSize=12;startSize=8;endSize=8;curved=1;exitX=0.5;exitY=1;exitDx=0;exitDy=0;entryX=0.5;entryY=0;entryDx=0;entryDy=0;" parent="1" source="MByqHcUUkSX6mI2JCgvQ-67" target="MByqHcUUkSX6mI2JCgvQ-68" edge="1">
          <mxGeometry width="50" height="50" relative="1" as="geometry">
            <mxPoint x="-2198.75" y="190" as="sourcePoint" />
            <mxPoint x="-2148.75" y="140" as="targetPoint" />
          </mxGeometry>
        </mxCell>
        <mxCell id="MByqHcUUkSX6mI2JCgvQ-82" style="edgeStyle=none;curved=1;rounded=0;orthogonalLoop=1;jettySize=auto;html=1;exitX=0.5;exitY=1;exitDx=0;exitDy=0;entryX=0.5;entryY=0;entryDx=0;entryDy=0;fontSize=12;startSize=8;endSize=8;" parent="1" source="MByqHcUUkSX6mI2JCgvQ-70" target="MByqHcUUkSX6mI2JCgvQ-71" edge="1">
          <mxGeometry relative="1" as="geometry" />
        </mxCell>
        <mxCell id="MByqHcUUkSX6mI2JCgvQ-70" value="&lt;div style=&quot;font-family: Consolas, &amp;quot;Courier New&amp;quot;, monospace; line-height: 27px; white-space: pre;&quot;&gt;&lt;div style=&quot;line-height: 27px;&quot;&gt;&lt;font&gt;&lt;span&gt;preparationStateHandler&lt;/span&gt;&lt;span&gt;();&lt;/span&gt;&lt;/font&gt;&lt;/div&gt;&lt;/div&gt;" style="shape=process;whiteSpace=wrap;html=1;backgroundOutline=1;strokeColor=default;labelBackgroundColor=default;fontColor=default;fontSize=12;" parent="1" vertex="1">
          <mxGeometry x="-2386.25" y="320" width="275" height="30" as="geometry" />
        </mxCell>
        <mxCell id="MByqHcUUkSX6mI2JCgvQ-83" style="edgeStyle=none;curved=1;rounded=0;orthogonalLoop=1;jettySize=auto;html=1;exitX=0.5;exitY=1;exitDx=0;exitDy=0;entryX=0.5;entryY=0;entryDx=0;entryDy=0;fontSize=12;startSize=8;endSize=8;" parent="1" source="MByqHcUUkSX6mI2JCgvQ-71" target="MByqHcUUkSX6mI2JCgvQ-72" edge="1">
          <mxGeometry relative="1" as="geometry" />
        </mxCell>
        <mxCell id="MByqHcUUkSX6mI2JCgvQ-71" value="&lt;div style=&quot;font-family: Consolas, &amp;quot;Courier New&amp;quot;, monospace; line-height: 27px; white-space: pre;&quot;&gt;&lt;div style=&quot;line-height: 27px;&quot;&gt;&lt;span&gt;gettingDataStateHandler&lt;/span&gt;&lt;span&gt;();&lt;/span&gt;&lt;/div&gt;&lt;/div&gt;" style="shape=process;whiteSpace=wrap;html=1;backgroundOutline=1;strokeColor=default;labelBackgroundColor=default;fontColor=default;fontSize=12;" parent="1" vertex="1">
          <mxGeometry x="-2386.25" y="400" width="275" height="30" as="geometry" />
        </mxCell>
        <mxCell id="MByqHcUUkSX6mI2JCgvQ-84" style="edgeStyle=none;curved=1;rounded=0;orthogonalLoop=1;jettySize=auto;html=1;exitX=0.5;exitY=1;exitDx=0;exitDy=0;entryX=0.5;entryY=0;entryDx=0;entryDy=0;fontSize=12;startSize=8;endSize=8;" parent="1" source="MByqHcUUkSX6mI2JCgvQ-72" target="MByqHcUUkSX6mI2JCgvQ-73" edge="1">
          <mxGeometry relative="1" as="geometry" />
        </mxCell>
        <mxCell id="MByqHcUUkSX6mI2JCgvQ-72" value="&lt;div style=&quot;font-family: Consolas, &amp;quot;Courier New&amp;quot;, monospace; line-height: 27px; white-space: pre;&quot;&gt;&lt;div style=&quot;line-height: 27px;&quot;&gt;&lt;span&gt;getPasswordInput&lt;/span&gt;&lt;span&gt;();&lt;/span&gt;&lt;/div&gt;&lt;/div&gt;" style="shape=process;whiteSpace=wrap;html=1;backgroundOutline=1;strokeColor=default;labelBackgroundColor=default;fontColor=default;fontSize=12;" parent="1" vertex="1">
          <mxGeometry x="-2386.25" y="480" width="275" height="30" as="geometry" />
        </mxCell>
        <mxCell id="MByqHcUUkSX6mI2JCgvQ-85" style="edgeStyle=none;curved=1;rounded=0;orthogonalLoop=1;jettySize=auto;html=1;exitX=0.5;exitY=1;exitDx=0;exitDy=0;entryX=0.5;entryY=0;entryDx=0;entryDy=0;fontSize=12;startSize=8;endSize=8;" parent="1" source="MByqHcUUkSX6mI2JCgvQ-73" target="MByqHcUUkSX6mI2JCgvQ-75" edge="1">
          <mxGeometry relative="1" as="geometry" />
        </mxCell>
        <mxCell id="MByqHcUUkSX6mI2JCgvQ-73" value="&lt;div style=&quot;font-family: Consolas, &amp;quot;Courier New&amp;quot;, monospace; line-height: 27px; white-space: pre;&quot;&gt;&lt;div style=&quot;line-height: 27px;&quot;&gt;&lt;span&gt;humgateUnavailableStateHandler&lt;/span&gt;&lt;span&gt;();&lt;/span&gt;&lt;/div&gt;&lt;/div&gt;" style="shape=process;whiteSpace=wrap;html=1;backgroundOutline=1;strokeColor=default;labelBackgroundColor=default;fontColor=default;fontSize=12;" parent="1" vertex="1">
          <mxGeometry x="-2386.25" y="560" width="275" height="30" as="geometry" />
        </mxCell>
        <mxCell id="MByqHcUUkSX6mI2JCgvQ-86" style="edgeStyle=none;curved=1;rounded=0;orthogonalLoop=1;jettySize=auto;html=1;exitX=0.5;exitY=1;exitDx=0;exitDy=0;entryX=0.5;entryY=0;entryDx=0;entryDy=0;fontSize=12;startSize=8;endSize=8;" parent="1" source="MByqHcUUkSX6mI2JCgvQ-75" target="MByqHcUUkSX6mI2JCgvQ-79" edge="1">
          <mxGeometry relative="1" as="geometry" />
        </mxCell>
        <mxCell id="MByqHcUUkSX6mI2JCgvQ-75" value="&lt;div style=&quot;font-family: Consolas, &amp;quot;Courier New&amp;quot;, monospace; line-height: 27px; white-space: pre;&quot;&gt;&lt;div style=&quot;line-height: 27px;&quot;&gt;&lt;span&gt;humgateAvailableStateHandler&lt;/span&gt;&lt;span&gt;();&lt;/span&gt;&lt;/div&gt;&lt;/div&gt;" style="shape=process;whiteSpace=wrap;html=1;backgroundOutline=1;strokeColor=default;labelBackgroundColor=default;fontColor=default;fontSize=12;" parent="1" vertex="1">
          <mxGeometry x="-2386.25" y="640" width="275" height="30" as="geometry" />
        </mxCell>
        <mxCell id="MByqHcUUkSX6mI2JCgvQ-88" style="edgeStyle=none;curved=1;rounded=0;orthogonalLoop=1;jettySize=auto;html=1;exitX=0.5;exitY=1;exitDx=0;exitDy=0;entryX=0.5;entryY=0;entryDx=0;entryDy=0;fontSize=12;startSize=8;endSize=8;" parent="1" source="MByqHcUUkSX6mI2JCgvQ-76" target="MByqHcUUkSX6mI2JCgvQ-77" edge="1">
          <mxGeometry relative="1" as="geometry" />
        </mxCell>
        <mxCell id="MByqHcUUkSX6mI2JCgvQ-76" value="&lt;div style=&quot;font-family: Consolas, &amp;quot;Courier New&amp;quot;, monospace; line-height: 27px; white-space: pre;&quot;&gt;&lt;div style=&quot;line-height: 27px;&quot;&gt;&lt;div style=&quot;line-height: 27px;&quot;&gt;&lt;span&gt;cargateUnavailable&lt;/span&gt;&lt;span&gt;Handler();&lt;/span&gt;&lt;/div&gt;&lt;/div&gt;&lt;/div&gt;" style="shape=process;whiteSpace=wrap;html=1;backgroundOutline=1;strokeColor=default;labelBackgroundColor=default;fontColor=default;fontSize=12;" parent="1" vertex="1">
          <mxGeometry x="-2386.25" y="800" width="275" height="30" as="geometry" />
        </mxCell>
        <mxCell id="MByqHcUUkSX6mI2JCgvQ-89" style="edgeStyle=none;curved=1;rounded=0;orthogonalLoop=1;jettySize=auto;html=1;entryX=0.5;entryY=0;entryDx=0;entryDy=0;fontSize=12;startSize=8;endSize=8;" parent="1" source="MByqHcUUkSX6mI2JCgvQ-77" target="MByqHcUUkSX6mI2JCgvQ-80" edge="1">
          <mxGeometry relative="1" as="geometry" />
        </mxCell>
        <mxCell id="MByqHcUUkSX6mI2JCgvQ-77" value="&lt;div style=&quot;font-family: Consolas, &amp;quot;Courier New&amp;quot;, monospace; line-height: 27px; white-space: pre;&quot;&gt;&lt;div style=&quot;line-height: 27px;&quot;&gt;&lt;div style=&quot;line-height: 27px;&quot;&gt;&lt;span&gt;cargateAvailableHandler();&lt;/span&gt;&lt;/div&gt;&lt;/div&gt;&lt;/div&gt;" style="shape=process;whiteSpace=wrap;html=1;backgroundOutline=1;strokeColor=default;labelBackgroundColor=default;fontColor=default;fontSize=12;" parent="1" vertex="1">
          <mxGeometry x="-2386.25" y="880" width="275" height="30" as="geometry" />
        </mxCell>
        <mxCell id="MByqHcUUkSX6mI2JCgvQ-87" style="edgeStyle=none;curved=1;rounded=0;orthogonalLoop=1;jettySize=auto;html=1;exitX=0.5;exitY=1;exitDx=0;exitDy=0;entryX=0.5;entryY=0;entryDx=0;entryDy=0;fontSize=12;startSize=8;endSize=8;" parent="1" source="MByqHcUUkSX6mI2JCgvQ-79" target="MByqHcUUkSX6mI2JCgvQ-76" edge="1">
          <mxGeometry relative="1" as="geometry" />
        </mxCell>
        <mxCell id="MByqHcUUkSX6mI2JCgvQ-79" value="&lt;div style=&quot;font-family: Consolas, &amp;quot;Courier New&amp;quot;, monospace; line-height: 27px; white-space: pre;&quot;&gt;&lt;div style=&quot;line-height: 27px;&quot;&gt;&lt;span&gt;serverWaitStatusHandler&lt;/span&gt;&lt;span&gt;();&lt;/span&gt;&lt;/div&gt;&lt;/div&gt;" style="shape=process;whiteSpace=wrap;html=1;backgroundOutline=1;strokeColor=default;labelBackgroundColor=default;fontColor=default;fontSize=12;" parent="1" vertex="1">
          <mxGeometry x="-2386.25" y="720" width="275" height="30" as="geometry" />
        </mxCell>
        <mxCell id="MByqHcUUkSX6mI2JCgvQ-80" value="return" style="ellipse;whiteSpace=wrap;html=1;" parent="1" vertex="1">
          <mxGeometry x="-2308.75" y="955" width="120" height="40" as="geometry" />
        </mxCell>
        <mxCell id="MByqHcUUkSX6mI2JCgvQ-90" value="&lt;div style=&quot;background-color: rgb(255, 255, 255); font-family: Consolas, &amp;quot;Courier New&amp;quot;, monospace; line-height: 27px; white-space: pre;&quot;&gt;PREPARATION_ST&lt;/div&gt;" style="text;html=1;align=left;verticalAlign=middle;whiteSpace=wrap;rounded=0;fontColor=default;fontSize=14;" parent="1" vertex="1">
          <mxGeometry x="-2068.75" y="320" width="60" height="30" as="geometry" />
        </mxCell>
        <mxCell id="MByqHcUUkSX6mI2JCgvQ-91" value="&lt;div style=&quot;background-color: rgb(255, 255, 255); font-family: Consolas, &amp;quot;Courier New&amp;quot;, monospace; line-height: 27px; white-space: pre;&quot;&gt;GETTING_DATA_ST&lt;/div&gt;" style="text;html=1;align=left;verticalAlign=middle;whiteSpace=wrap;rounded=0;fontColor=default;fontSize=14;" parent="1" vertex="1">
          <mxGeometry x="-2068.75" y="400" width="60" height="30" as="geometry" />
        </mxCell>
        <mxCell id="MByqHcUUkSX6mI2JCgvQ-92" value="&lt;div style=&quot;background-color: rgb(255, 255, 255); font-family: Consolas, &amp;quot;Courier New&amp;quot;, monospace; line-height: 27px; white-space: pre;&quot;&gt;PSWD_CHECK_ST&lt;/div&gt;" style="text;html=1;align=left;verticalAlign=middle;whiteSpace=wrap;rounded=0;fontColor=default;fontSize=14;" parent="1" vertex="1">
          <mxGeometry x="-2068.75" y="480" width="60" height="30" as="geometry" />
        </mxCell>
        <mxCell id="MByqHcUUkSX6mI2JCgvQ-93" value="&lt;div style=&quot;background-color: rgb(255, 255, 255); font-family: Consolas, &amp;quot;Courier New&amp;quot;, monospace; line-height: 27px; white-space: pre;&quot;&gt;HUMGATE_UNAVAILABLE_ST&lt;/div&gt;" style="text;html=1;align=left;verticalAlign=middle;whiteSpace=wrap;rounded=0;fontColor=default;fontSize=14;" parent="1" vertex="1">
          <mxGeometry x="-2068.75" y="560" width="60" height="30" as="geometry" />
        </mxCell>
        <mxCell id="MByqHcUUkSX6mI2JCgvQ-94" value="&lt;div style=&quot;background-color: rgb(255, 255, 255); font-family: Consolas, &amp;quot;Courier New&amp;quot;, monospace; line-height: 27px; white-space: pre;&quot;&gt;HUMGATE_AVAILABLE_ST&lt;/div&gt;" style="text;html=1;align=left;verticalAlign=middle;whiteSpace=wrap;rounded=0;fontColor=default;fontSize=14;" parent="1" vertex="1">
          <mxGeometry x="-2068.75" y="640" width="60" height="30" as="geometry" />
        </mxCell>
        <mxCell id="MByqHcUUkSX6mI2JCgvQ-95" value="&lt;div style=&quot;background-color: rgb(255, 255, 255); font-family: Consolas, &amp;quot;Courier New&amp;quot;, monospace; line-height: 27px; white-space: pre;&quot;&gt;SERVER_WAIT_STATUS_ST&lt;/div&gt;" style="text;html=1;align=left;verticalAlign=middle;whiteSpace=wrap;rounded=0;fontColor=default;fontSize=14;" parent="1" vertex="1">
          <mxGeometry x="-2068.75" y="720" width="60" height="30" as="geometry" />
        </mxCell>
        <mxCell id="MByqHcUUkSX6mI2JCgvQ-96" value="&lt;div style=&quot;background-color: rgb(255, 255, 255); font-family: Consolas, &amp;quot;Courier New&amp;quot;, monospace; line-height: 27px; white-space: pre;&quot;&gt;CARGATE_UNAVAILABLE_ST&lt;/div&gt;" style="text;html=1;align=left;verticalAlign=middle;whiteSpace=wrap;rounded=0;fontColor=default;fontSize=14;" parent="1" vertex="1">
          <mxGeometry x="-2068.75" y="800" width="60" height="30" as="geometry" />
        </mxCell>
        <mxCell id="MByqHcUUkSX6mI2JCgvQ-97" value="&lt;div style=&quot;background-color: rgb(255, 255, 255); font-family: Consolas, &amp;quot;Courier New&amp;quot;, monospace; line-height: 27px; white-space: pre;&quot;&gt;CARGATE_AVAILABLE_ST&lt;/div&gt;" style="text;html=1;align=left;verticalAlign=middle;whiteSpace=wrap;rounded=0;fontColor=default;fontSize=14;" parent="1" vertex="1">
          <mxGeometry x="-2068.75" y="880" width="60" height="30" as="geometry" />
        </mxCell>
        <mxCell id="MByqHcUUkSX6mI2JCgvQ-99" value="&lt;div&gt;&lt;br&gt;&lt;/div&gt;" style="text;html=1;align=center;verticalAlign=middle;whiteSpace=wrap;rounded=0;" parent="1" vertex="1">
          <mxGeometry x="-2131.25" y="115" width="60" height="30" as="geometry" />
        </mxCell>
        <mxCell id="MByqHcUUkSX6mI2JCgvQ-100" value="&lt;div style=&quot;background-color: rgb(255, 255, 255); font-family: Consolas, &amp;quot;Courier New&amp;quot;, monospace; line-height: 27px; white-space: pre;&quot;&gt;&lt;font style=&quot;color: rgb(0, 0, 0);&quot;&gt;handleGateLogic&lt;/font&gt;&lt;font style=&quot;color: rgb(0, 0, 0);&quot; color=&quot;#434f54&quot;&gt;()&lt;/font&gt;&lt;/div&gt;" style="ellipse;whiteSpace=wrap;html=1;" parent="1" vertex="1">
          <mxGeometry x="-2316.87" y="1345" width="156.25" height="40" as="geometry" />
        </mxCell>
        <mxCell id="MByqHcUUkSX6mI2JCgvQ-101" style="edgeStyle=none;curved=1;rounded=0;orthogonalLoop=1;jettySize=auto;html=1;exitX=0.5;exitY=1;exitDx=0;exitDy=0;entryX=0.5;entryY=0;entryDx=0;entryDy=0;fontSize=12;startSize=8;endSize=8;" parent="1" source="MByqHcUUkSX6mI2JCgvQ-102" target="MByqHcUUkSX6mI2JCgvQ-105" edge="1">
          <mxGeometry relative="1" as="geometry" />
        </mxCell>
        <mxCell id="MByqHcUUkSX6mI2JCgvQ-102" value="state" style="rhombus;whiteSpace=wrap;html=1;" parent="1" vertex="1">
          <mxGeometry x="-2313.75" y="1415" width="150" height="90" as="geometry" />
        </mxCell>
        <mxCell id="MByqHcUUkSX6mI2JCgvQ-103" value="" style="endArrow=classic;html=1;rounded=0;fontSize=12;startSize=8;endSize=8;curved=1;exitX=0.5;exitY=1;exitDx=0;exitDy=0;entryX=0.5;entryY=0;entryDx=0;entryDy=0;" parent="1" source="MByqHcUUkSX6mI2JCgvQ-100" target="MByqHcUUkSX6mI2JCgvQ-102" edge="1">
          <mxGeometry width="50" height="50" relative="1" as="geometry">
            <mxPoint x="-2188.75" y="1415" as="sourcePoint" />
            <mxPoint x="-2138.75" y="1365" as="targetPoint" />
          </mxGeometry>
        </mxCell>
        <mxCell id="MByqHcUUkSX6mI2JCgvQ-104" style="edgeStyle=none;curved=1;rounded=0;orthogonalLoop=1;jettySize=auto;html=1;exitX=0.5;exitY=1;exitDx=0;exitDy=0;entryX=0.5;entryY=0;entryDx=0;entryDy=0;fontSize=12;startSize=8;endSize=8;fontColor=default;" parent="1" source="MByqHcUUkSX6mI2JCgvQ-105" target="MByqHcUUkSX6mI2JCgvQ-107" edge="1">
          <mxGeometry relative="1" as="geometry" />
        </mxCell>
        <mxCell id="MByqHcUUkSX6mI2JCgvQ-105" value="&lt;div style=&quot;font-family: Consolas, &amp;quot;Courier New&amp;quot;, monospace; line-height: 27px; white-space: pre;&quot;&gt;&lt;div style=&quot;line-height: 27px;&quot;&gt;&lt;div style=&quot;line-height: 27px;&quot;&gt;&lt;span&gt;openSolenoid&lt;/span&gt;&lt;span&gt;();&lt;/span&gt;&lt;/div&gt;&lt;/div&gt;&lt;/div&gt;" style="shape=process;whiteSpace=wrap;html=1;backgroundOutline=1;strokeColor=default;labelBackgroundColor=default;fontColor=default;fontSize=12;" parent="1" vertex="1">
          <mxGeometry x="-2376.25" y="1545" width="275" height="30" as="geometry" />
        </mxCell>
        <mxCell id="MByqHcUUkSX6mI2JCgvQ-106" style="edgeStyle=none;curved=1;rounded=0;orthogonalLoop=1;jettySize=auto;html=1;exitX=0.5;exitY=1;exitDx=0;exitDy=0;entryX=0.5;entryY=0;entryDx=0;entryDy=0;fontSize=12;startSize=8;endSize=8;fontColor=default;" parent="1" source="MByqHcUUkSX6mI2JCgvQ-107" target="MByqHcUUkSX6mI2JCgvQ-109" edge="1">
          <mxGeometry relative="1" as="geometry" />
        </mxCell>
        <mxCell id="MByqHcUUkSX6mI2JCgvQ-107" value="&lt;div style=&quot;font-family: Consolas, &amp;quot;Courier New&amp;quot;, monospace; line-height: 27px; white-space: pre;&quot;&gt;&lt;div style=&quot;line-height: 27px;&quot;&gt;&lt;div style=&quot;line-height: 27px;&quot;&gt;&amp;nbsp;&lt;span&gt;openGate&lt;/span&gt;&lt;span&gt;();&lt;/span&gt;&lt;/div&gt;&lt;/div&gt;&lt;/div&gt;" style="shape=process;whiteSpace=wrap;html=1;backgroundOutline=1;strokeColor=default;labelBackgroundColor=default;fontColor=default;fontSize=12;" parent="1" vertex="1">
          <mxGeometry x="-2376.25" y="1625" width="275" height="30" as="geometry" />
        </mxCell>
        <mxCell id="MByqHcUUkSX6mI2JCgvQ-108" style="edgeStyle=none;curved=1;rounded=0;orthogonalLoop=1;jettySize=auto;html=1;exitX=0.5;exitY=1;exitDx=0;exitDy=0;entryX=0.5;entryY=0;entryDx=0;entryDy=0;fontSize=12;startSize=8;endSize=8;fontColor=default;" parent="1" source="MByqHcUUkSX6mI2JCgvQ-109" target="MByqHcUUkSX6mI2JCgvQ-111" edge="1">
          <mxGeometry relative="1" as="geometry" />
        </mxCell>
        <mxCell id="MByqHcUUkSX6mI2JCgvQ-109" value="&lt;div style=&quot;font-family: Consolas, &amp;quot;Courier New&amp;quot;, monospace; line-height: 27px; white-space: pre;&quot;&gt;&lt;div style=&quot;line-height: 27px;&quot;&gt;&lt;div style=&quot;line-height: 27px;&quot;&gt;&lt;span&gt;waitForPedestrian&lt;/span&gt;&lt;span&gt;();&lt;/span&gt;&lt;/div&gt;&lt;/div&gt;&lt;/div&gt;" style="shape=process;whiteSpace=wrap;html=1;backgroundOutline=1;strokeColor=default;labelBackgroundColor=default;fontColor=default;fontSize=12;" parent="1" vertex="1">
          <mxGeometry x="-2376.25" y="1705" width="275" height="30" as="geometry" />
        </mxCell>
        <mxCell id="MByqHcUUkSX6mI2JCgvQ-110" style="edgeStyle=none;curved=1;rounded=0;orthogonalLoop=1;jettySize=auto;html=1;exitX=0.5;exitY=1;exitDx=0;exitDy=0;entryX=0.5;entryY=0;entryDx=0;entryDy=0;fontSize=12;startSize=8;endSize=8;fontColor=default;" parent="1" source="MByqHcUUkSX6mI2JCgvQ-111" target="MByqHcUUkSX6mI2JCgvQ-113" edge="1">
          <mxGeometry relative="1" as="geometry" />
        </mxCell>
        <mxCell id="MByqHcUUkSX6mI2JCgvQ-111" value="&lt;div style=&quot;font-family: Consolas, &amp;quot;Courier New&amp;quot;, monospace; line-height: 27px; white-space: pre;&quot;&gt;&lt;div style=&quot;line-height: 27px;&quot;&gt;&lt;div style=&quot;line-height: 27px;&quot;&gt;&lt;span&gt;pedestrianPass&lt;/span&gt;&lt;span&gt;()&lt;/span&gt;;&lt;/div&gt;&lt;/div&gt;&lt;/div&gt;" style="shape=process;whiteSpace=wrap;html=1;backgroundOutline=1;strokeColor=default;labelBackgroundColor=default;fontColor=default;fontSize=12;" parent="1" vertex="1">
          <mxGeometry x="-2376.25" y="1785" width="275" height="30" as="geometry" />
        </mxCell>
        <mxCell id="MByqHcUUkSX6mI2JCgvQ-112" style="edgeStyle=none;curved=1;rounded=0;orthogonalLoop=1;jettySize=auto;html=1;exitX=0.5;exitY=1;exitDx=0;exitDy=0;entryX=0.5;entryY=0;entryDx=0;entryDy=0;fontSize=12;startSize=8;endSize=8;fontColor=default;" parent="1" source="MByqHcUUkSX6mI2JCgvQ-113" target="MByqHcUUkSX6mI2JCgvQ-119" edge="1">
          <mxGeometry relative="1" as="geometry" />
        </mxCell>
        <mxCell id="MByqHcUUkSX6mI2JCgvQ-113" value="&lt;div style=&quot;font-family: Consolas, &amp;quot;Courier New&amp;quot;, monospace; line-height: 27px; white-space: pre;&quot;&gt;&lt;div style=&quot;line-height: 27px;&quot;&gt;&lt;div style=&quot;line-height: 27px;&quot;&gt;&lt;span&gt;waitAfterPass&lt;/span&gt;&lt;span&gt;()&lt;/span&gt;;&lt;/div&gt;&lt;/div&gt;&lt;/div&gt;" style="shape=process;whiteSpace=wrap;html=1;backgroundOutline=1;strokeColor=default;labelBackgroundColor=default;fontColor=default;fontSize=12;" parent="1" vertex="1">
          <mxGeometry x="-2376.25" y="1865" width="275" height="30" as="geometry" />
        </mxCell>
        <mxCell id="MByqHcUUkSX6mI2JCgvQ-135" style="edgeStyle=none;curved=1;rounded=0;orthogonalLoop=1;jettySize=auto;html=1;fontSize=12;startSize=8;endSize=8;fontColor=default;" parent="1" source="MByqHcUUkSX6mI2JCgvQ-119" target="MByqHcUUkSX6mI2JCgvQ-134" edge="1">
          <mxGeometry relative="1" as="geometry" />
        </mxCell>
        <mxCell id="MByqHcUUkSX6mI2JCgvQ-119" value="&lt;div style=&quot;font-family: Consolas, &amp;quot;Courier New&amp;quot;, monospace; line-height: 27px; white-space: pre;&quot;&gt;&lt;div style=&quot;line-height: 27px;&quot;&gt;&lt;div style=&quot;line-height: 27px;&quot;&gt;&lt;span&gt;closeGate&lt;/span&gt;&lt;span&gt;()&lt;/span&gt;;&lt;/div&gt;&lt;/div&gt;&lt;/div&gt;" style="shape=process;whiteSpace=wrap;html=1;backgroundOutline=1;strokeColor=default;labelBackgroundColor=default;fontColor=default;fontSize=12;" parent="1" vertex="1">
          <mxGeometry x="-2376.25" y="1945" width="275" height="30" as="geometry" />
        </mxCell>
        <mxCell id="MByqHcUUkSX6mI2JCgvQ-121" value="&lt;div style=&quot;background-color: rgb(255, 255, 255); font-family: Consolas, &amp;quot;Courier New&amp;quot;, monospace; line-height: 27px; white-space: pre;&quot;&gt;&lt;div style=&quot;line-height: 27px;&quot;&gt;OPEN_SOLENOID&lt;/div&gt;&lt;/div&gt;" style="text;html=1;align=left;verticalAlign=middle;whiteSpace=wrap;rounded=0;fontColor=default;fontSize=14;" parent="1" vertex="1">
          <mxGeometry x="-2058.75" y="1545" width="60" height="30" as="geometry" />
        </mxCell>
        <mxCell id="MByqHcUUkSX6mI2JCgvQ-122" value="&lt;div style=&quot;background-color: rgb(255, 255, 255); font-family: Consolas, &amp;quot;Courier New&amp;quot;, monospace; line-height: 27px; white-space: pre;&quot;&gt;&lt;div style=&quot;line-height: 27px;&quot;&gt;OPEN_GATE&lt;/div&gt;&lt;/div&gt;" style="text;html=1;align=left;verticalAlign=middle;whiteSpace=wrap;rounded=0;fontColor=default;fontSize=14;" parent="1" vertex="1">
          <mxGeometry x="-2058.75" y="1625" width="60" height="30" as="geometry" />
        </mxCell>
        <mxCell id="MByqHcUUkSX6mI2JCgvQ-123" value="&lt;br&gt;&lt;div style=&quot;background-color: rgb(255, 255, 255); font-family: Consolas, &amp;quot;Courier New&amp;quot;, monospace; font-weight: normal; line-height: 27px; white-space: pre;&quot;&gt;&lt;div&gt;&lt;span&gt;WAIT_PEDESTRIAN&lt;/span&gt;&lt;/div&gt;&lt;/div&gt;" style="text;html=1;align=left;verticalAlign=middle;whiteSpace=wrap;rounded=0;fontColor=default;fontSize=14;" parent="1" vertex="1">
          <mxGeometry x="-2058.75" y="1705" width="60" height="30" as="geometry" />
        </mxCell>
        <mxCell id="MByqHcUUkSX6mI2JCgvQ-124" value="&lt;div style=&quot;background-color: rgb(255, 255, 255); font-family: Consolas, &amp;quot;Courier New&amp;quot;, monospace; line-height: 27px; white-space: pre;&quot;&gt;&lt;div style=&quot;line-height: 27px;&quot;&gt;PEDESTRIAN_PASS&lt;/div&gt;&lt;/div&gt;" style="text;html=1;align=left;verticalAlign=middle;whiteSpace=wrap;rounded=0;fontColor=default;fontSize=14;" parent="1" vertex="1">
          <mxGeometry x="-2058.75" y="1785" width="60" height="30" as="geometry" />
        </mxCell>
        <mxCell id="MByqHcUUkSX6mI2JCgvQ-125" value="&lt;div style=&quot;background-color: rgb(255, 255, 255); font-family: Consolas, &amp;quot;Courier New&amp;quot;, monospace; line-height: 27px; white-space: pre;&quot;&gt;&lt;div style=&quot;line-height: 27px;&quot;&gt;WAIT_AFTER_PASS&lt;/div&gt;&lt;/div&gt;" style="text;html=1;align=left;verticalAlign=middle;whiteSpace=wrap;rounded=0;fontColor=default;fontSize=14;" parent="1" vertex="1">
          <mxGeometry x="-2058.75" y="1865" width="60" height="30" as="geometry" />
        </mxCell>
        <mxCell id="MByqHcUUkSX6mI2JCgvQ-126" value="&lt;div style=&quot;background-color: rgb(255, 255, 255); font-family: Consolas, &amp;quot;Courier New&amp;quot;, monospace; line-height: 27px; white-space: pre;&quot;&gt;&lt;div style=&quot;line-height: 27px;&quot;&gt;CLOSE_GATE&lt;/div&gt;&lt;/div&gt;" style="text;html=1;align=left;verticalAlign=middle;whiteSpace=wrap;rounded=0;fontColor=default;fontSize=14;" parent="1" vertex="1">
          <mxGeometry x="-2058.75" y="1945" width="60" height="30" as="geometry" />
        </mxCell>
        <mxCell id="MByqHcUUkSX6mI2JCgvQ-129" value="&lt;font style=&quot;font-size: 25px;&quot;&gt;Калитка&lt;/font&gt;" style="text;html=1;align=center;verticalAlign=middle;whiteSpace=wrap;rounded=0;" parent="1" vertex="1">
          <mxGeometry x="-2151.25" y="1265" width="195" height="80" as="geometry" />
        </mxCell>
        <mxCell id="MByqHcUUkSX6mI2JCgvQ-131" value="&lt;div style=&quot;background-color: rgb(255, 255, 255); font-family: Consolas, &amp;quot;Courier New&amp;quot;, monospace; line-height: 27px; white-space: pre;&quot;&gt;end&lt;/div&gt;" style="ellipse;whiteSpace=wrap;html=1;" parent="1" vertex="1">
          <mxGeometry x="-2316.87" y="2125" width="156.25" height="40" as="geometry" />
        </mxCell>
        <mxCell id="MByqHcUUkSX6mI2JCgvQ-136" style="edgeStyle=none;curved=1;rounded=0;orthogonalLoop=1;jettySize=auto;html=1;fontSize=12;startSize=8;endSize=8;" parent="1" source="MByqHcUUkSX6mI2JCgvQ-134" target="MByqHcUUkSX6mI2JCgvQ-131" edge="1">
          <mxGeometry relative="1" as="geometry" />
        </mxCell>
        <mxCell id="MByqHcUUkSX6mI2JCgvQ-134" value="&lt;div style=&quot;font-family: Consolas, &amp;quot;Courier New&amp;quot;, monospace; line-height: 27px; white-space: pre;&quot;&gt;&lt;div style=&quot;line-height: 27px;&quot;&gt;&lt;div style=&quot;line-height: 27px;&quot;&gt;closeSolenoid();&lt;/div&gt;&lt;/div&gt;&lt;/div&gt;" style="shape=process;whiteSpace=wrap;html=1;backgroundOutline=1;strokeColor=default;labelBackgroundColor=default;fontColor=default;fontSize=12;" parent="1" vertex="1">
          <mxGeometry x="-2376.24" y="2025" width="275" height="30" as="geometry" />
        </mxCell>
        <mxCell id="MByqHcUUkSX6mI2JCgvQ-137" value="&lt;div style=&quot;background-color: rgb(255, 255, 255); font-family: Consolas, &amp;quot;Courier New&amp;quot;, monospace; line-height: 27px; white-space: pre;&quot;&gt;&lt;div style=&quot;line-height: 27px;&quot;&gt;&lt;div style=&quot;line-height: 27px;&quot;&gt;CLOSE_SOLENOID&lt;/div&gt;&lt;/div&gt;&lt;/div&gt;" style="text;html=1;align=left;verticalAlign=middle;whiteSpace=wrap;rounded=0;fontColor=default;fontSize=14;" parent="1" vertex="1">
          <mxGeometry x="-2048.75" y="2025" width="60" height="30" as="geometry" />
        </mxCell>
        <mxCell id="MByqHcUUkSX6mI2JCgvQ-255" style="edgeStyle=none;curved=1;rounded=0;orthogonalLoop=1;jettySize=auto;html=1;fontSize=12;startSize=8;endSize=8;" parent="1" source="MByqHcUUkSX6mI2JCgvQ-169" target="MByqHcUUkSX6mI2JCgvQ-252" edge="1">
          <mxGeometry relative="1" as="geometry" />
        </mxCell>
        <mxCell id="MByqHcUUkSX6mI2JCgvQ-169" value="start" style="ellipse;whiteSpace=wrap;html=1;" parent="1" vertex="1">
          <mxGeometry x="-2308.75" y="3552" width="120" height="40" as="geometry" />
        </mxCell>
        <mxCell id="MByqHcUUkSX6mI2JCgvQ-256" style="edgeStyle=none;curved=1;rounded=0;orthogonalLoop=1;jettySize=auto;html=1;entryX=0.5;entryY=0;entryDx=0;entryDy=0;fontSize=12;startSize=8;endSize=8;" parent="1" source="MByqHcUUkSX6mI2JCgvQ-252" target="MByqHcUUkSX6mI2JCgvQ-253" edge="1">
          <mxGeometry relative="1" as="geometry" />
        </mxCell>
        <mxCell id="MByqHcUUkSX6mI2JCgvQ-252" value="&lt;div style=&quot;font-family: Consolas, &amp;quot;Courier New&amp;quot;, monospace; line-height: 27px; white-space: pre;&quot;&gt;&lt;div style=&quot;line-height: 27px;&quot;&gt;&lt;div style=&quot;line-height: 27px;&quot;&gt;&lt;span&gt;openSolenoid&lt;/span&gt;&lt;span&gt;();&lt;/span&gt;&lt;/div&gt;&lt;/div&gt;&lt;/div&gt;" style="shape=process;whiteSpace=wrap;html=1;backgroundOutline=1;strokeColor=default;labelBackgroundColor=default;fontColor=default;fontSize=12;" parent="1" vertex="1">
          <mxGeometry x="-2386.25" y="3642" width="275" height="30" as="geometry" />
        </mxCell>
        <mxCell id="MByqHcUUkSX6mI2JCgvQ-258" style="edgeStyle=none;curved=1;rounded=0;orthogonalLoop=1;jettySize=auto;html=1;entryX=0.5;entryY=0;entryDx=0;entryDy=0;fontSize=12;startSize=8;endSize=8;" parent="1" source="MByqHcUUkSX6mI2JCgvQ-253" target="MByqHcUUkSX6mI2JCgvQ-257" edge="1">
          <mxGeometry relative="1" as="geometry" />
        </mxCell>
        <mxCell id="MByqHcUUkSX6mI2JCgvQ-253" value="&lt;div style=&quot;font-family: Consolas, &amp;quot;Courier New&amp;quot;, monospace; line-height: 27px; white-space: pre;&quot;&gt;&lt;div style=&quot;line-height: 27px;&quot;&gt;&lt;div style=&quot;line-height: 27px;&quot;&gt;&amp;nbsp;&lt;span&gt;openGate&lt;/span&gt;&lt;span&gt;();&lt;/span&gt;&lt;/div&gt;&lt;/div&gt;&lt;/div&gt;" style="shape=process;whiteSpace=wrap;html=1;backgroundOutline=1;strokeColor=default;labelBackgroundColor=default;fontColor=default;fontSize=12;" parent="1" vertex="1">
          <mxGeometry x="-2386.25" y="3722" width="275" height="30" as="geometry" />
        </mxCell>
        <mxCell id="MByqHcUUkSX6mI2JCgvQ-260" style="edgeStyle=none;curved=1;rounded=0;orthogonalLoop=1;jettySize=auto;html=1;entryX=0.5;entryY=0;entryDx=0;entryDy=0;fontSize=12;startSize=8;endSize=8;" parent="1" source="MByqHcUUkSX6mI2JCgvQ-257" target="MByqHcUUkSX6mI2JCgvQ-259" edge="1">
          <mxGeometry relative="1" as="geometry" />
        </mxCell>
        <mxCell id="MByqHcUUkSX6mI2JCgvQ-257" value="&lt;div style=&quot;font-family: Consolas, &amp;quot;Courier New&amp;quot;, monospace; line-height: 27px; white-space: pre;&quot;&gt;&lt;div style=&quot;line-height: 27px;&quot;&gt;&lt;div style=&quot;line-height: 27px;&quot;&gt;&lt;span&gt;waitForPedestrian&lt;/span&gt;&lt;span&gt;();&lt;/span&gt;&lt;/div&gt;&lt;/div&gt;&lt;/div&gt;" style="shape=process;whiteSpace=wrap;html=1;backgroundOutline=1;strokeColor=default;labelBackgroundColor=default;fontColor=default;fontSize=12;" parent="1" vertex="1">
          <mxGeometry x="-2386.25" y="3802" width="275" height="30" as="geometry" />
        </mxCell>
        <mxCell id="MByqHcUUkSX6mI2JCgvQ-259" value="&lt;div style=&quot;font-family: Consolas, &amp;quot;Courier New&amp;quot;, monospace; line-height: 27px; white-space: pre;&quot;&gt;&lt;font style=&quot;color: rgb(0, 0, 0);&quot;&gt;&lt;span&gt;&lt;font style=&quot;&quot;&gt;checkPIR&lt;/font&gt;&lt;/span&gt;&lt;span&gt;&lt;font style=&quot;&quot;&gt;() == 1 and&lt;/font&gt;&lt;/span&gt;&lt;/font&gt;&lt;/div&gt;&lt;div style=&quot;font-family: Consolas, &amp;quot;Courier New&amp;quot;, monospace; line-height: 27px; white-space: pre;&quot;&gt;&lt;font style=&quot;color: rgb(0, 0, 0);&quot;&gt;&lt;span&gt;&lt;font style=&quot;&quot;&gt;startTime &amp;lt; PIR_TIMEOUT_MS&lt;/font&gt;&lt;/span&gt;&lt;/font&gt;&lt;/div&gt;" style="rhombus;whiteSpace=wrap;html=1;" parent="1" vertex="1">
          <mxGeometry x="-2368.75" y="3882" width="240" height="140" as="geometry" />
        </mxCell>
        <mxCell id="MByqHcUUkSX6mI2JCgvQ-268" style="edgeStyle=none;curved=1;rounded=0;orthogonalLoop=1;jettySize=auto;html=1;fontSize=12;startSize=8;endSize=8;" parent="1" source="MByqHcUUkSX6mI2JCgvQ-261" target="MByqHcUUkSX6mI2JCgvQ-267" edge="1">
          <mxGeometry relative="1" as="geometry" />
        </mxCell>
        <mxCell id="MByqHcUUkSX6mI2JCgvQ-261" value="&lt;div style=&quot;font-family: Consolas, &amp;quot;Courier New&amp;quot;, monospace; line-height: 27px; white-space: pre;&quot;&gt;&lt;div style=&quot;line-height: 27px;&quot;&gt;&lt;div style=&quot;line-height: 27px;&quot;&gt;&lt;span&gt;pedestrianPass&lt;/span&gt;&lt;span&gt;()&lt;/span&gt;;&lt;/div&gt;&lt;/div&gt;&lt;/div&gt;" style="shape=process;whiteSpace=wrap;html=1;backgroundOutline=1;strokeColor=default;labelBackgroundColor=default;fontColor=default;fontSize=12;" parent="1" vertex="1">
          <mxGeometry x="-2158.75" y="4122" width="275" height="30" as="geometry" />
        </mxCell>
        <mxCell id="MByqHcUUkSX6mI2JCgvQ-262" value="" style="endArrow=classic;html=1;rounded=0;fontSize=12;startSize=8;endSize=8;exitX=1;exitY=0.5;exitDx=0;exitDy=0;entryX=0.5;entryY=0;entryDx=0;entryDy=0;edgeStyle=orthogonalEdgeStyle;" parent="1" source="MByqHcUUkSX6mI2JCgvQ-259" target="MByqHcUUkSX6mI2JCgvQ-261" edge="1">
          <mxGeometry width="50" height="50" relative="1" as="geometry">
            <mxPoint x="-2026.25" y="3982" as="sourcePoint" />
            <mxPoint x="-1976.25" y="3932" as="targetPoint" />
          </mxGeometry>
        </mxCell>
        <mxCell id="MByqHcUUkSX6mI2JCgvQ-265" value="Да" style="text;html=1;align=center;verticalAlign=middle;whiteSpace=wrap;rounded=0;" parent="1" vertex="1">
          <mxGeometry x="-2101.25" y="3922" width="60" height="30" as="geometry" />
        </mxCell>
        <mxCell id="MByqHcUUkSX6mI2JCgvQ-267" value="&lt;span style=&quot;font-family: Consolas, &amp;quot;Courier New&amp;quot;, monospace; white-space: pre;&quot;&gt;checkPIR&lt;/span&gt;&lt;span style=&quot;font-family: Consolas, &amp;quot;Courier New&amp;quot;, monospace; white-space: pre;&quot;&gt;() == 0&lt;/span&gt;" style="rhombus;whiteSpace=wrap;html=1;" parent="1" vertex="1">
          <mxGeometry x="-2146.25" y="4242" width="250" height="145" as="geometry" />
        </mxCell>
        <mxCell id="MByqHcUUkSX6mI2JCgvQ-282" style="edgeStyle=none;curved=1;rounded=0;orthogonalLoop=1;jettySize=auto;html=1;fontSize=12;startSize=8;endSize=8;" parent="1" source="MByqHcUUkSX6mI2JCgvQ-269" edge="1">
          <mxGeometry relative="1" as="geometry">
            <mxPoint x="-1847.5" y="4572" as="targetPoint" />
          </mxGeometry>
        </mxCell>
        <mxCell id="MByqHcUUkSX6mI2JCgvQ-269" value="&lt;div style=&quot;font-family: Consolas, &amp;quot;Courier New&amp;quot;, monospace; line-height: 27px; white-space: pre;&quot;&gt;&lt;div style=&quot;line-height: 27px;&quot;&gt;&lt;div style=&quot;line-height: 27px;&quot;&gt;&lt;span&gt;waitAfterPass&lt;/span&gt;&lt;span&gt;()&lt;/span&gt;;&lt;/div&gt;&lt;/div&gt;&lt;/div&gt;" style="shape=process;whiteSpace=wrap;html=1;backgroundOutline=1;strokeColor=default;labelBackgroundColor=default;fontColor=default;fontSize=12;" parent="1" vertex="1">
          <mxGeometry x="-1985" y="4472" width="275" height="30" as="geometry" />
        </mxCell>
        <mxCell id="MByqHcUUkSX6mI2JCgvQ-272" value="" style="endArrow=classic;html=1;rounded=0;fontSize=12;startSize=8;endSize=8;exitX=1;exitY=0.5;exitDx=0;exitDy=0;entryX=0.5;entryY=0;entryDx=0;entryDy=0;edgeStyle=orthogonalEdgeStyle;" parent="1" source="MByqHcUUkSX6mI2JCgvQ-267" target="MByqHcUUkSX6mI2JCgvQ-269" edge="1">
          <mxGeometry width="50" height="50" relative="1" as="geometry">
            <mxPoint x="-1793.75" y="4362" as="sourcePoint" />
            <mxPoint x="-1743.75" y="4312" as="targetPoint" />
          </mxGeometry>
        </mxCell>
        <mxCell id="MByqHcUUkSX6mI2JCgvQ-273" value="Да" style="text;html=1;align=center;verticalAlign=middle;whiteSpace=wrap;rounded=0;" parent="1" vertex="1">
          <mxGeometry x="-1897.5" y="4283" width="60" height="30" as="geometry" />
        </mxCell>
        <mxCell id="MByqHcUUkSX6mI2JCgvQ-277" value="Нет" style="text;html=1;align=center;verticalAlign=middle;whiteSpace=wrap;rounded=0;" parent="1" vertex="1">
          <mxGeometry x="-2206.25" y="4283" width="60" height="30" as="geometry" />
        </mxCell>
        <mxCell id="MByqHcUUkSX6mI2JCgvQ-278" value="" style="endArrow=classic;html=1;rounded=0;fontSize=12;startSize=8;endSize=8;exitX=0;exitY=0.5;exitDx=0;exitDy=0;entryX=0;entryY=0.5;entryDx=0;entryDy=0;edgeStyle=orthogonalEdgeStyle;" parent="1" source="MByqHcUUkSX6mI2JCgvQ-267" target="MByqHcUUkSX6mI2JCgvQ-261" edge="1">
          <mxGeometry width="50" height="50" relative="1" as="geometry">
            <mxPoint x="-2223.75" y="4302" as="sourcePoint" />
            <mxPoint x="-2173.75" y="4252" as="targetPoint" />
            <Array as="points">
              <mxPoint x="-2223.75" y="4314" />
              <mxPoint x="-2223.75" y="4137" />
            </Array>
          </mxGeometry>
        </mxCell>
        <mxCell id="MByqHcUUkSX6mI2JCgvQ-291" style="edgeStyle=none;curved=1;rounded=0;orthogonalLoop=1;jettySize=auto;html=1;exitX=0.5;exitY=1;exitDx=0;exitDy=0;entryX=0.5;entryY=0;entryDx=0;entryDy=0;fontSize=12;startSize=8;endSize=8;" parent="1" source="MByqHcUUkSX6mI2JCgvQ-279" target="MByqHcUUkSX6mI2JCgvQ-290" edge="1">
          <mxGeometry relative="1" as="geometry" />
        </mxCell>
        <mxCell id="MByqHcUUkSX6mI2JCgvQ-279" value="&lt;div style=&quot;font-family: Consolas, &amp;quot;Courier New&amp;quot;, monospace; line-height: 27px; white-space: pre;&quot;&gt;&lt;div style=&quot;line-height: 27px;&quot;&gt;&lt;div style=&quot;line-height: 27px;&quot;&gt;&lt;span&gt;closeGate&lt;/span&gt;&lt;span&gt;()&lt;/span&gt;;&lt;/div&gt;&lt;/div&gt;&lt;/div&gt;" style="shape=process;whiteSpace=wrap;html=1;backgroundOutline=1;strokeColor=default;labelBackgroundColor=default;fontColor=default;fontSize=12;" parent="1" vertex="1">
          <mxGeometry x="-1772.5" y="4792" width="275" height="30" as="geometry" />
        </mxCell>
        <mxCell id="MByqHcUUkSX6mI2JCgvQ-283" value="&lt;div style=&quot;font-family: Consolas, &amp;quot;Courier New&amp;quot;, monospace; line-height: 27px; white-space: pre;&quot;&gt;&lt;font style=&quot;color: rgb(0, 0, 0);&quot;&gt;&lt;span&gt;&lt;font style=&quot;&quot;&gt;checkPIR&lt;/font&gt;&lt;/span&gt;&lt;span&gt;&lt;font style=&quot;&quot;&gt;() == 1 and&lt;/font&gt;&lt;/span&gt;&lt;/font&gt;&lt;/div&gt;&lt;div style=&quot;font-family: Consolas, &amp;quot;Courier New&amp;quot;, monospace; line-height: 27px; white-space: pre;&quot;&gt;&lt;font style=&quot;color: rgb(0, 0, 0);&quot;&gt;&lt;span&gt;&lt;font style=&quot;&quot;&gt;startTime &amp;lt; PIR_TIMEOUT_MS&lt;/font&gt;&lt;/span&gt;&lt;/font&gt;&lt;/div&gt;" style="rhombus;whiteSpace=wrap;html=1;" parent="1" vertex="1">
          <mxGeometry x="-1967.5" y="4572" width="240" height="140" as="geometry" />
        </mxCell>
        <mxCell id="MByqHcUUkSX6mI2JCgvQ-284" value="" style="endArrow=classic;html=1;rounded=0;fontSize=12;startSize=8;endSize=8;exitX=0;exitY=0.5;exitDx=0;exitDy=0;entryX=0;entryY=0.5;entryDx=0;entryDy=0;edgeStyle=orthogonalEdgeStyle;" parent="1" source="MByqHcUUkSX6mI2JCgvQ-283" target="MByqHcUUkSX6mI2JCgvQ-269" edge="1">
          <mxGeometry width="50" height="50" relative="1" as="geometry">
            <mxPoint x="-2035" y="4612" as="sourcePoint" />
            <mxPoint x="-1985" y="4562" as="targetPoint" />
            <Array as="points">
              <mxPoint x="-2045" y="4642" />
              <mxPoint x="-2045" y="4487" />
            </Array>
          </mxGeometry>
        </mxCell>
        <mxCell id="MByqHcUUkSX6mI2JCgvQ-287" value="" style="endArrow=classic;html=1;rounded=0;fontSize=12;startSize=8;endSize=8;exitX=1;exitY=0.5;exitDx=0;exitDy=0;entryX=0.5;entryY=0;entryDx=0;entryDy=0;edgeStyle=orthogonalEdgeStyle;" parent="1" source="MByqHcUUkSX6mI2JCgvQ-283" target="MByqHcUUkSX6mI2JCgvQ-279" edge="1">
          <mxGeometry width="50" height="50" relative="1" as="geometry">
            <mxPoint x="-1655" y="4692" as="sourcePoint" />
            <mxPoint x="-1605" y="4642" as="targetPoint" />
            <Array as="points">
              <mxPoint x="-1635" y="4642" />
              <mxPoint x="-1635" y="4772" />
            </Array>
          </mxGeometry>
        </mxCell>
        <mxCell id="MByqHcUUkSX6mI2JCgvQ-288" value="Нет" style="text;html=1;align=center;verticalAlign=middle;whiteSpace=wrap;rounded=0;" parent="1" vertex="1">
          <mxGeometry x="-2027.5" y="4612" width="60" height="30" as="geometry" />
        </mxCell>
        <mxCell id="MByqHcUUkSX6mI2JCgvQ-289" value="Да" style="text;html=1;align=center;verticalAlign=middle;whiteSpace=wrap;rounded=0;" parent="1" vertex="1">
          <mxGeometry x="-1717.5" y="4612" width="60" height="30" as="geometry" />
        </mxCell>
        <mxCell id="MByqHcUUkSX6mI2JCgvQ-290" value="&lt;div style=&quot;font-family: Consolas, &amp;quot;Courier New&amp;quot;, monospace; line-height: 27px; white-space: pre;&quot;&gt;&lt;font style=&quot;color: rgb(0, 0, 0);&quot;&gt;&lt;span&gt;&lt;font style=&quot;&quot;&gt;checkPIR&lt;/font&gt;&lt;/span&gt;&lt;span&gt;&lt;font style=&quot;&quot;&gt;() == 1 and&lt;/font&gt;&lt;/span&gt;&lt;/font&gt;&lt;/div&gt;&lt;div style=&quot;font-family: Consolas, &amp;quot;Courier New&amp;quot;, monospace; line-height: 27px; white-space: pre;&quot;&gt;close_sens != 1&lt;/div&gt;" style="rhombus;whiteSpace=wrap;html=1;" parent="1" vertex="1">
          <mxGeometry x="-1755" y="4892" width="240" height="140" as="geometry" />
        </mxCell>
        <mxCell id="MByqHcUUkSX6mI2JCgvQ-309" style="edgeStyle=none;curved=1;rounded=0;orthogonalLoop=1;jettySize=auto;html=1;entryX=0.5;entryY=0;entryDx=0;entryDy=0;fontSize=12;startSize=8;endSize=8;" parent="1" source="MByqHcUUkSX6mI2JCgvQ-292" target="MByqHcUUkSX6mI2JCgvQ-308" edge="1">
          <mxGeometry relative="1" as="geometry" />
        </mxCell>
        <mxCell id="MByqHcUUkSX6mI2JCgvQ-292" value="&lt;div style=&quot;font-family: Consolas, &amp;quot;Courier New&amp;quot;, monospace; line-height: 27px; white-space: pre;&quot;&gt;&lt;div style=&quot;line-height: 27px;&quot;&gt;&lt;div style=&quot;line-height: 27px;&quot;&gt;closeSolenoid();&lt;/div&gt;&lt;/div&gt;&lt;/div&gt;" style="shape=process;whiteSpace=wrap;html=1;backgroundOutline=1;strokeColor=default;labelBackgroundColor=default;fontColor=default;fontSize=12;" parent="1" vertex="1">
          <mxGeometry x="-2095" y="5212" width="275" height="30" as="geometry" />
        </mxCell>
        <mxCell id="MByqHcUUkSX6mI2JCgvQ-293" value="" style="endArrow=classic;html=1;rounded=0;fontSize=12;startSize=8;endSize=8;exitX=0;exitY=0.5;exitDx=0;exitDy=0;entryX=0.5;entryY=0;entryDx=0;entryDy=0;edgeStyle=orthogonalEdgeStyle;" parent="1" source="MByqHcUUkSX6mI2JCgvQ-290" target="MByqHcUUkSX6mI2JCgvQ-292" edge="1">
          <mxGeometry width="50" height="50" relative="1" as="geometry">
            <mxPoint x="-1825" y="5112" as="sourcePoint" />
            <mxPoint x="-1775" y="5062" as="targetPoint" />
          </mxGeometry>
        </mxCell>
        <mxCell id="MByqHcUUkSX6mI2JCgvQ-294" value="Нет" style="text;html=1;align=center;verticalAlign=middle;whiteSpace=wrap;rounded=0;" parent="1" vertex="1">
          <mxGeometry x="-1867.5" y="4932" width="60" height="30" as="geometry" />
        </mxCell>
        <mxCell id="MByqHcUUkSX6mI2JCgvQ-296" value="Да" style="text;html=1;align=center;verticalAlign=middle;whiteSpace=wrap;rounded=0;" parent="1" vertex="1">
          <mxGeometry x="-1497.5" y="4932" width="60" height="30" as="geometry" />
        </mxCell>
        <mxCell id="MByqHcUUkSX6mI2JCgvQ-298" value="&lt;div&gt;&lt;br&gt;&lt;/div&gt;" style="text;html=1;align=center;verticalAlign=middle;whiteSpace=wrap;rounded=0;" parent="1" vertex="1">
          <mxGeometry x="-1995.25" y="3542" width="60" height="30" as="geometry" />
        </mxCell>
        <mxCell id="MByqHcUUkSX6mI2JCgvQ-299" value="A" style="ellipse;whiteSpace=wrap;html=1;aspect=fixed;" parent="1" vertex="1">
          <mxGeometry x="-2466.25" y="4032" width="40" height="40" as="geometry" />
        </mxCell>
        <mxCell id="MByqHcUUkSX6mI2JCgvQ-300" value="A" style="ellipse;whiteSpace=wrap;html=1;aspect=fixed;" parent="1" vertex="1">
          <mxGeometry x="-1873.75" y="4787" width="40" height="40" as="geometry" />
        </mxCell>
        <mxCell id="MByqHcUUkSX6mI2JCgvQ-304" style="edgeStyle=none;curved=1;rounded=0;orthogonalLoop=1;jettySize=auto;html=1;entryX=1;entryY=0.5;entryDx=0;entryDy=0;fontSize=12;startSize=8;endSize=8;" parent="1" source="MByqHcUUkSX6mI2JCgvQ-301" target="MByqHcUUkSX6mI2JCgvQ-261" edge="1">
          <mxGeometry relative="1" as="geometry" />
        </mxCell>
        <mxCell id="MByqHcUUkSX6mI2JCgvQ-301" value="B" style="ellipse;whiteSpace=wrap;html=1;aspect=fixed;" parent="1" vertex="1">
          <mxGeometry x="-1785.25" y="4117" width="40" height="40" as="geometry" />
        </mxCell>
        <mxCell id="MByqHcUUkSX6mI2JCgvQ-302" value="B" style="ellipse;whiteSpace=wrap;html=1;aspect=fixed;" parent="1" vertex="1">
          <mxGeometry x="-1437.5" y="5062" width="40" height="40" as="geometry" />
        </mxCell>
        <mxCell id="MByqHcUUkSX6mI2JCgvQ-305" value="" style="endArrow=classic;html=1;rounded=0;fontSize=12;startSize=8;endSize=8;entryX=0.5;entryY=0;entryDx=0;entryDy=0;exitX=0;exitY=0.5;exitDx=0;exitDy=0;edgeStyle=orthogonalEdgeStyle;" parent="1" source="MByqHcUUkSX6mI2JCgvQ-259" target="MByqHcUUkSX6mI2JCgvQ-299" edge="1">
          <mxGeometry width="50" height="50" relative="1" as="geometry">
            <mxPoint x="-2375.25" y="4052" as="sourcePoint" />
            <mxPoint x="-2375.25" y="3952" as="targetPoint" />
          </mxGeometry>
        </mxCell>
        <mxCell id="MByqHcUUkSX6mI2JCgvQ-306" value="" style="endArrow=classic;html=1;rounded=0;fontSize=12;startSize=8;endSize=8;curved=1;exitX=1;exitY=0.5;exitDx=0;exitDy=0;entryX=0;entryY=0.5;entryDx=0;entryDy=0;" parent="1" source="MByqHcUUkSX6mI2JCgvQ-300" target="MByqHcUUkSX6mI2JCgvQ-279" edge="1">
          <mxGeometry width="50" height="50" relative="1" as="geometry">
            <mxPoint x="-1805.25" y="4792" as="sourcePoint" />
            <mxPoint x="-1755.25" y="4742" as="targetPoint" />
          </mxGeometry>
        </mxCell>
        <mxCell id="MByqHcUUkSX6mI2JCgvQ-307" value="" style="endArrow=classic;html=1;rounded=0;fontSize=12;startSize=8;endSize=8;exitX=1;exitY=0.5;exitDx=0;exitDy=0;entryX=0.5;entryY=0;entryDx=0;entryDy=0;edgeStyle=orthogonalEdgeStyle;" parent="1" source="MByqHcUUkSX6mI2JCgvQ-290" target="MByqHcUUkSX6mI2JCgvQ-302" edge="1">
          <mxGeometry width="50" height="50" relative="1" as="geometry">
            <mxPoint x="-1445.25" y="5032" as="sourcePoint" />
            <mxPoint x="-1395.25" y="4982" as="targetPoint" />
          </mxGeometry>
        </mxCell>
        <mxCell id="MByqHcUUkSX6mI2JCgvQ-308" value="end" style="ellipse;whiteSpace=wrap;html=1;" parent="1" vertex="1">
          <mxGeometry x="-2017.5" y="5352" width="120" height="40" as="geometry" />
        </mxCell>
        <mxCell id="MByqHcUUkSX6mI2JCgvQ-312" style="edgeStyle=none;curved=1;rounded=0;orthogonalLoop=1;jettySize=auto;html=1;entryX=0.5;entryY=0;entryDx=0;entryDy=0;fontSize=12;startSize=8;endSize=8;" parent="1" source="MByqHcUUkSX6mI2JCgvQ-310" target="MByqHcUUkSX6mI2JCgvQ-311" edge="1">
          <mxGeometry relative="1" as="geometry" />
        </mxCell>
        <mxCell id="MByqHcUUkSX6mI2JCgvQ-310" value="start" style="ellipse;whiteSpace=wrap;html=1;" parent="1" vertex="1">
          <mxGeometry x="-2266" y="5836" width="120" height="40" as="geometry" />
        </mxCell>
        <mxCell id="MByqHcUUkSX6mI2JCgvQ-314" style="edgeStyle=none;curved=1;rounded=0;orthogonalLoop=1;jettySize=auto;html=1;entryX=0.5;entryY=0;entryDx=0;entryDy=0;fontSize=12;startSize=8;endSize=8;" parent="1" source="MByqHcUUkSX6mI2JCgvQ-311" target="MByqHcUUkSX6mI2JCgvQ-313" edge="1">
          <mxGeometry relative="1" as="geometry" />
        </mxCell>
        <mxCell id="MByqHcUUkSX6mI2JCgvQ-311" value="&lt;div style=&quot;font-family: Consolas, &amp;quot;Courier New&amp;quot;, monospace; line-height: 27px; white-space: pre;&quot;&gt;&lt;div style=&quot;line-height: 27px;&quot;&gt;&lt;div style=&quot;line-height: 27px;&quot;&gt;&lt;div style=&quot;line-height: 27px;&quot;&gt;&lt;span style=&quot;&quot;&gt;open_car_Gate&lt;/span&gt;&lt;span style=&quot;&quot;&gt;()&lt;/span&gt;;&lt;/div&gt;&lt;/div&gt;&lt;/div&gt;&lt;/div&gt;" style="shape=process;whiteSpace=wrap;html=1;backgroundOutline=1;strokeColor=default;labelBackgroundColor=default;fontColor=default;fontSize=12;" parent="1" vertex="1">
          <mxGeometry x="-2296" y="5926" width="180" height="30" as="geometry" />
        </mxCell>
        <mxCell id="MByqHcUUkSX6mI2JCgvQ-316" style="edgeStyle=none;curved=1;rounded=0;orthogonalLoop=1;jettySize=auto;html=1;entryX=0.5;entryY=0;entryDx=0;entryDy=0;fontSize=12;startSize=8;endSize=8;" parent="1" source="MByqHcUUkSX6mI2JCgvQ-313" target="MByqHcUUkSX6mI2JCgvQ-315" edge="1">
          <mxGeometry relative="1" as="geometry" />
        </mxCell>
        <mxCell id="MByqHcUUkSX6mI2JCgvQ-313" value="&lt;div style=&quot;font-family: Consolas, &amp;quot;Courier New&amp;quot;, monospace; line-height: 27px; white-space: pre;&quot;&gt;&lt;div style=&quot;line-height: 27px;&quot;&gt;&lt;div style=&quot;line-height: 27px;&quot;&gt;&lt;div style=&quot;line-height: 27px;&quot;&gt;&lt;span style=&quot;&quot;&gt;waitForCar&lt;/span&gt;&lt;span style=&quot;&quot;&gt;()&lt;/span&gt;;&lt;/div&gt;&lt;/div&gt;&lt;/div&gt;&lt;/div&gt;" style="shape=process;whiteSpace=wrap;html=1;backgroundOutline=1;strokeColor=default;labelBackgroundColor=default;fontColor=default;fontSize=12;" parent="1" vertex="1">
          <mxGeometry x="-2296" y="6006" width="180" height="30" as="geometry" />
        </mxCell>
        <mxCell id="MByqHcUUkSX6mI2JCgvQ-315" value="&lt;div style=&quot;font-family: Consolas, &amp;quot;Courier New&amp;quot;, monospace; line-height: 27px; white-space: pre;&quot;&gt;&lt;font style=&quot;color: rgb(0, 0, 0);&quot;&gt;&lt;span&gt;&lt;font style=&quot;&quot;&gt;checkPIR&lt;/font&gt;&lt;/span&gt;&lt;span&gt;&lt;font style=&quot;&quot;&gt;() == 1 and&lt;/font&gt;&lt;/span&gt;&lt;/font&gt;&lt;/div&gt;&lt;div style=&quot;font-family: Consolas, &amp;quot;Courier New&amp;quot;, monospace; line-height: 27px; white-space: pre;&quot;&gt;&lt;font style=&quot;color: rgb(0, 0, 0);&quot;&gt;&lt;span&gt;&lt;font style=&quot;&quot;&gt;startTime &amp;lt; PIR_TIMEOUT_MS&lt;/font&gt;&lt;/span&gt;&lt;/font&gt;&lt;/div&gt;" style="rhombus;whiteSpace=wrap;html=1;" parent="1" vertex="1">
          <mxGeometry x="-2326" y="6096" width="240" height="140" as="geometry" />
        </mxCell>
        <mxCell id="MByqHcUUkSX6mI2JCgvQ-322" value="A" style="ellipse;whiteSpace=wrap;html=1;aspect=fixed;" parent="1" vertex="1">
          <mxGeometry x="-2436" y="6236" width="40" height="40" as="geometry" />
        </mxCell>
        <mxCell id="MByqHcUUkSX6mI2JCgvQ-323" value="" style="endArrow=classic;html=1;rounded=0;fontSize=12;startSize=8;endSize=8;exitX=0;exitY=0.5;exitDx=0;exitDy=0;entryX=0.5;entryY=0;entryDx=0;entryDy=0;edgeStyle=orthogonalEdgeStyle;" parent="1" source="MByqHcUUkSX6mI2JCgvQ-315" target="MByqHcUUkSX6mI2JCgvQ-322" edge="1">
          <mxGeometry width="50" height="50" relative="1" as="geometry">
            <mxPoint x="-2426" y="6096" as="sourcePoint" />
            <mxPoint x="-2376" y="6046" as="targetPoint" />
          </mxGeometry>
        </mxCell>
        <mxCell id="MByqHcUUkSX6mI2JCgvQ-324" value="Нет" style="text;html=1;align=center;verticalAlign=middle;whiteSpace=wrap;rounded=0;" parent="1" vertex="1">
          <mxGeometry x="-2406" y="6136" width="60" height="30" as="geometry" />
        </mxCell>
        <mxCell id="MByqHcUUkSX6mI2JCgvQ-329" style="edgeStyle=none;curved=1;rounded=0;orthogonalLoop=1;jettySize=auto;html=1;exitX=0.5;exitY=1;exitDx=0;exitDy=0;entryX=0.5;entryY=0;entryDx=0;entryDy=0;fontSize=12;startSize=8;endSize=8;" parent="1" source="MByqHcUUkSX6mI2JCgvQ-325" target="MByqHcUUkSX6mI2JCgvQ-328" edge="1">
          <mxGeometry relative="1" as="geometry" />
        </mxCell>
        <mxCell id="MByqHcUUkSX6mI2JCgvQ-325" value="&lt;div style=&quot;font-family: Consolas, &amp;quot;Courier New&amp;quot;, monospace; line-height: 27px; white-space: pre;&quot;&gt;&lt;div style=&quot;line-height: 27px;&quot;&gt;&lt;div style=&quot;line-height: 27px;&quot;&gt;&lt;div style=&quot;line-height: 27px;&quot;&gt;&lt;span style=&quot;&quot;&gt;CarPass&lt;/span&gt;&lt;span style=&quot;&quot;&gt;()&lt;/span&gt;;&lt;/div&gt;&lt;/div&gt;&lt;/div&gt;&lt;/div&gt;" style="shape=process;whiteSpace=wrap;html=1;backgroundOutline=1;strokeColor=default;labelBackgroundColor=default;fontColor=default;fontSize=12;" parent="1" vertex="1">
          <mxGeometry x="-2076" y="6316" width="180" height="30" as="geometry" />
        </mxCell>
        <mxCell id="MByqHcUUkSX6mI2JCgvQ-326" value="" style="endArrow=classic;html=1;rounded=0;fontSize=12;startSize=8;endSize=8;exitX=1;exitY=0.5;exitDx=0;exitDy=0;entryX=0.5;entryY=0;entryDx=0;entryDy=0;edgeStyle=orthogonalEdgeStyle;" parent="1" source="MByqHcUUkSX6mI2JCgvQ-315" target="MByqHcUUkSX6mI2JCgvQ-325" edge="1">
          <mxGeometry width="50" height="50" relative="1" as="geometry">
            <mxPoint x="-1986" y="6226" as="sourcePoint" />
            <mxPoint x="-1936" y="6176" as="targetPoint" />
          </mxGeometry>
        </mxCell>
        <mxCell id="MByqHcUUkSX6mI2JCgvQ-327" value="Да" style="text;html=1;align=center;verticalAlign=middle;whiteSpace=wrap;rounded=0;" parent="1" vertex="1">
          <mxGeometry x="-2076" y="6136" width="60" height="30" as="geometry" />
        </mxCell>
        <mxCell id="MByqHcUUkSX6mI2JCgvQ-328" value="&lt;span style=&quot;font-family: Consolas, &amp;quot;Courier New&amp;quot;, monospace; white-space: pre;&quot;&gt;checkPIR&lt;/span&gt;&lt;span style=&quot;font-family: Consolas, &amp;quot;Courier New&amp;quot;, monospace; white-space: pre;&quot;&gt;() == 0&lt;/span&gt;" style="rhombus;whiteSpace=wrap;html=1;" parent="1" vertex="1">
          <mxGeometry x="-2111" y="6441" width="250" height="145" as="geometry" />
        </mxCell>
        <mxCell id="MByqHcUUkSX6mI2JCgvQ-330" value="" style="endArrow=classic;html=1;rounded=0;fontSize=12;startSize=8;endSize=8;exitX=0;exitY=0.5;exitDx=0;exitDy=0;entryX=0;entryY=0.5;entryDx=0;entryDy=0;edgeStyle=orthogonalEdgeStyle;" parent="1" source="MByqHcUUkSX6mI2JCgvQ-328" target="MByqHcUUkSX6mI2JCgvQ-325" edge="1">
          <mxGeometry width="50" height="50" relative="1" as="geometry">
            <mxPoint x="-2136" y="6496" as="sourcePoint" />
            <mxPoint x="-2086" y="6446" as="targetPoint" />
            <Array as="points">
              <mxPoint x="-2186" y="6514" />
              <mxPoint x="-2186" y="6331" />
            </Array>
          </mxGeometry>
        </mxCell>
        <mxCell id="MByqHcUUkSX6mI2JCgvQ-331" value="Нет" style="text;html=1;align=center;verticalAlign=middle;whiteSpace=wrap;rounded=0;" parent="1" vertex="1">
          <mxGeometry x="-2171" y="6486" width="60" height="30" as="geometry" />
        </mxCell>
        <mxCell id="MByqHcUUkSX6mI2JCgvQ-336" style="edgeStyle=none;curved=1;rounded=0;orthogonalLoop=1;jettySize=auto;html=1;entryX=0.5;entryY=0;entryDx=0;entryDy=0;fontSize=12;startSize=8;endSize=8;" parent="1" source="MByqHcUUkSX6mI2JCgvQ-332" target="MByqHcUUkSX6mI2JCgvQ-335" edge="1">
          <mxGeometry relative="1" as="geometry" />
        </mxCell>
        <mxCell id="MByqHcUUkSX6mI2JCgvQ-332" value="&lt;div style=&quot;font-family: Consolas, &amp;quot;Courier New&amp;quot;, monospace; line-height: 27px; white-space: pre;&quot;&gt;&lt;div style=&quot;line-height: 27px;&quot;&gt;&lt;div style=&quot;line-height: 27px;&quot;&gt;&lt;div style=&quot;line-height: 27px;&quot;&gt;&lt;span style=&quot;&quot;&gt;waitAfterCarPass&lt;/span&gt;&lt;span style=&quot;&quot;&gt;()&lt;/span&gt;;&lt;/div&gt;&lt;/div&gt;&lt;/div&gt;&lt;/div&gt;" style="shape=process;whiteSpace=wrap;html=1;backgroundOutline=1;strokeColor=default;labelBackgroundColor=default;fontColor=default;fontSize=12;" parent="1" vertex="1">
          <mxGeometry x="-1879" y="6633" width="180" height="30" as="geometry" />
        </mxCell>
        <mxCell id="MByqHcUUkSX6mI2JCgvQ-333" value="" style="endArrow=classic;html=1;rounded=0;fontSize=12;startSize=8;endSize=8;exitX=1;exitY=0.5;exitDx=0;exitDy=0;entryX=0.5;entryY=0;entryDx=0;entryDy=0;edgeStyle=orthogonalEdgeStyle;" parent="1" source="MByqHcUUkSX6mI2JCgvQ-328" target="MByqHcUUkSX6mI2JCgvQ-332" edge="1">
          <mxGeometry width="50" height="50" relative="1" as="geometry">
            <mxPoint x="-1796" y="6546" as="sourcePoint" />
            <mxPoint x="-1746" y="6496" as="targetPoint" />
          </mxGeometry>
        </mxCell>
        <mxCell id="MByqHcUUkSX6mI2JCgvQ-334" value="Да" style="text;html=1;align=center;verticalAlign=middle;whiteSpace=wrap;rounded=0;" parent="1" vertex="1">
          <mxGeometry x="-1861" y="6486" width="60" height="30" as="geometry" />
        </mxCell>
        <mxCell id="MByqHcUUkSX6mI2JCgvQ-335" value="&lt;div style=&quot;font-family: Consolas, &amp;quot;Courier New&amp;quot;, monospace; line-height: 27px; white-space: pre;&quot;&gt;&lt;font style=&quot;color: rgb(0, 0, 0);&quot;&gt;&lt;span&gt;&lt;font style=&quot;&quot;&gt;checkPIR&lt;/font&gt;&lt;/span&gt;&lt;span&gt;&lt;font style=&quot;&quot;&gt;() == 1 and&lt;/font&gt;&lt;/span&gt;&lt;/font&gt;&lt;/div&gt;&lt;div style=&quot;font-family: Consolas, &amp;quot;Courier New&amp;quot;, monospace; line-height: 27px; white-space: pre;&quot;&gt;&lt;font style=&quot;color: rgb(0, 0, 0);&quot;&gt;&lt;span&gt;&lt;font style=&quot;&quot;&gt;startTime &amp;lt; PIR_TIMEOUT_MS&lt;/font&gt;&lt;/span&gt;&lt;/font&gt;&lt;/div&gt;" style="rhombus;whiteSpace=wrap;html=1;" parent="1" vertex="1">
          <mxGeometry x="-1909" y="6756" width="240" height="140" as="geometry" />
        </mxCell>
        <mxCell id="MByqHcUUkSX6mI2JCgvQ-337" value="" style="endArrow=classic;html=1;rounded=0;fontSize=12;startSize=8;endSize=8;exitX=0;exitY=0.5;exitDx=0;exitDy=0;entryX=0;entryY=0.5;entryDx=0;entryDy=0;edgeStyle=orthogonalEdgeStyle;" parent="1" source="MByqHcUUkSX6mI2JCgvQ-335" target="MByqHcUUkSX6mI2JCgvQ-332" edge="1">
          <mxGeometry width="50" height="50" relative="1" as="geometry">
            <mxPoint x="-1956" y="6756" as="sourcePoint" />
            <mxPoint x="-1906" y="6706" as="targetPoint" />
            <Array as="points">
              <mxPoint x="-1976" y="6826" />
              <mxPoint x="-1976" y="6648" />
            </Array>
          </mxGeometry>
        </mxCell>
        <mxCell id="MByqHcUUkSX6mI2JCgvQ-338" value="Нет" style="text;html=1;align=center;verticalAlign=middle;whiteSpace=wrap;rounded=0;" parent="1" vertex="1">
          <mxGeometry x="-1969" y="6796" width="60" height="30" as="geometry" />
        </mxCell>
        <mxCell id="MByqHcUUkSX6mI2JCgvQ-344" style="edgeStyle=none;curved=1;rounded=0;orthogonalLoop=1;jettySize=auto;html=1;exitX=0.5;exitY=1;exitDx=0;exitDy=0;fontSize=12;startSize=8;endSize=8;" parent="1" source="MByqHcUUkSX6mI2JCgvQ-339" target="MByqHcUUkSX6mI2JCgvQ-343" edge="1">
          <mxGeometry relative="1" as="geometry" />
        </mxCell>
        <mxCell id="MByqHcUUkSX6mI2JCgvQ-339" value="&lt;div style=&quot;font-family: Consolas, &amp;quot;Courier New&amp;quot;, monospace; line-height: 27px; white-space: pre;&quot;&gt;&lt;div style=&quot;line-height: 27px;&quot;&gt;&lt;div style=&quot;line-height: 27px;&quot;&gt;&lt;div style=&quot;line-height: 27px;&quot;&gt;&lt;span style=&quot;&quot;&gt;closeCarGate&lt;/span&gt;&lt;span style=&quot;&quot;&gt;()&lt;/span&gt;;&lt;/div&gt;&lt;/div&gt;&lt;/div&gt;&lt;/div&gt;" style="shape=process;whiteSpace=wrap;html=1;backgroundOutline=1;strokeColor=default;labelBackgroundColor=default;fontColor=default;fontSize=12;" parent="1" vertex="1">
          <mxGeometry x="-1686" y="6986" width="180" height="30" as="geometry" />
        </mxCell>
        <mxCell id="MByqHcUUkSX6mI2JCgvQ-340" value="" style="endArrow=classic;html=1;rounded=0;fontSize=12;startSize=8;endSize=8;exitX=1;exitY=0.5;exitDx=0;exitDy=0;entryX=0.5;entryY=0;entryDx=0;entryDy=0;edgeStyle=orthogonalEdgeStyle;" parent="1" source="MByqHcUUkSX6mI2JCgvQ-335" target="MByqHcUUkSX6mI2JCgvQ-339" edge="1">
          <mxGeometry width="50" height="50" relative="1" as="geometry">
            <mxPoint x="-1536" y="6946" as="sourcePoint" />
            <mxPoint x="-1486" y="6896" as="targetPoint" />
          </mxGeometry>
        </mxCell>
        <mxCell id="MByqHcUUkSX6mI2JCgvQ-342" value="Да" style="text;html=1;align=center;verticalAlign=middle;whiteSpace=wrap;rounded=0;" parent="1" vertex="1">
          <mxGeometry x="-1669" y="6796" width="60" height="30" as="geometry" />
        </mxCell>
        <mxCell id="MByqHcUUkSX6mI2JCgvQ-343" value="&lt;div style=&quot;font-family: Consolas, &amp;quot;Courier New&amp;quot;, monospace; line-height: 27px; white-space: pre;&quot;&gt;&lt;font style=&quot;color: rgb(0, 0, 0);&quot;&gt;&lt;span&gt;&lt;font style=&quot;&quot;&gt;checkPIR&lt;/font&gt;&lt;/span&gt;&lt;span&gt;&lt;font style=&quot;&quot;&gt;() == 1 and&lt;/font&gt;&lt;/span&gt;&lt;/font&gt;&lt;/div&gt;&lt;div style=&quot;font-family: Consolas, &amp;quot;Courier New&amp;quot;, monospace; line-height: 27px; white-space: pre;&quot;&gt;close_sens != 1&lt;/div&gt;" style="rhombus;whiteSpace=wrap;html=1;" parent="1" vertex="1">
          <mxGeometry x="-1716" y="7116" width="240" height="140" as="geometry" />
        </mxCell>
        <mxCell id="MByqHcUUkSX6mI2JCgvQ-346" style="edgeStyle=none;curved=1;rounded=0;orthogonalLoop=1;jettySize=auto;html=1;entryX=0;entryY=0.5;entryDx=0;entryDy=0;fontSize=12;startSize=8;endSize=8;" parent="1" source="MByqHcUUkSX6mI2JCgvQ-345" target="MByqHcUUkSX6mI2JCgvQ-339" edge="1">
          <mxGeometry relative="1" as="geometry" />
        </mxCell>
        <mxCell id="MByqHcUUkSX6mI2JCgvQ-345" value="A" style="ellipse;whiteSpace=wrap;html=1;aspect=fixed;" parent="1" vertex="1">
          <mxGeometry x="-1801" y="6981" width="40" height="40" as="geometry" />
        </mxCell>
        <mxCell id="MByqHcUUkSX6mI2JCgvQ-347" value="B" style="ellipse;whiteSpace=wrap;html=1;aspect=fixed;" parent="1" vertex="1">
          <mxGeometry x="-1419.75" y="7276" width="40" height="40" as="geometry" />
        </mxCell>
        <mxCell id="MByqHcUUkSX6mI2JCgvQ-348" value="" style="endArrow=classic;html=1;rounded=0;fontSize=12;startSize=8;endSize=8;exitX=1;exitY=0.5;exitDx=0;exitDy=0;entryX=0.5;entryY=0;entryDx=0;entryDy=0;edgeStyle=orthogonalEdgeStyle;" parent="1" source="MByqHcUUkSX6mI2JCgvQ-343" target="MByqHcUUkSX6mI2JCgvQ-347" edge="1">
          <mxGeometry width="50" height="50" relative="1" as="geometry">
            <mxPoint x="-1406" y="7206" as="sourcePoint" />
            <mxPoint x="-1356" y="7156" as="targetPoint" />
          </mxGeometry>
        </mxCell>
        <mxCell id="MByqHcUUkSX6mI2JCgvQ-350" value="end" style="ellipse;whiteSpace=wrap;html=1;" parent="1" vertex="1">
          <mxGeometry x="-1849" y="7276" width="120" height="40" as="geometry" />
        </mxCell>
        <mxCell id="MByqHcUUkSX6mI2JCgvQ-351" value="" style="endArrow=classic;html=1;rounded=0;fontSize=12;startSize=8;endSize=8;exitX=0;exitY=0.5;exitDx=0;exitDy=0;entryX=0.5;entryY=0;entryDx=0;entryDy=0;edgeStyle=orthogonalEdgeStyle;" parent="1" source="MByqHcUUkSX6mI2JCgvQ-343" target="MByqHcUUkSX6mI2JCgvQ-350" edge="1">
          <mxGeometry width="50" height="50" relative="1" as="geometry">
            <mxPoint x="-1786" y="7186" as="sourcePoint" />
            <mxPoint x="-1736" y="7136" as="targetPoint" />
          </mxGeometry>
        </mxCell>
        <mxCell id="JctZUFJ3rgf-NNdzYn-Z-1" style="edgeStyle=none;curved=1;rounded=0;orthogonalLoop=1;jettySize=auto;html=1;entryX=1;entryY=0.5;entryDx=0;entryDy=0;fontSize=12;startSize=8;endSize=8;" parent="1" source="JctZUFJ3rgf-NNdzYn-Z-2" edge="1">
          <mxGeometry relative="1" as="geometry">
            <mxPoint x="-1896" y="6331" as="targetPoint" />
          </mxGeometry>
        </mxCell>
        <mxCell id="JctZUFJ3rgf-NNdzYn-Z-2" value="B" style="ellipse;whiteSpace=wrap;html=1;aspect=fixed;" parent="1" vertex="1">
          <mxGeometry x="-1797.25" y="6311" width="40" height="40" as="geometry" />
        </mxCell>
        <mxCell id="6P8dWXz_ZmytROIsNSV3-61" style="edgeStyle=orthogonalEdgeStyle;rounded=0;orthogonalLoop=1;jettySize=auto;html=1;entryX=0.5;entryY=0;entryDx=0;entryDy=0;" parent="1" source="6P8dWXz_ZmytROIsNSV3-59" target="6P8dWXz_ZmytROIsNSV3-60" edge="1">
          <mxGeometry relative="1" as="geometry" />
        </mxCell>
        <mxCell id="6P8dWXz_ZmytROIsNSV3-59" value="&lt;div style=&quot;background-color: rgb(255, 255, 255); font-family: Consolas, &amp;quot;Courier New&amp;quot;, monospace; line-height: 27px; white-space: pre;&quot;&gt;&lt;font style=&quot;color: rgb(0, 0, 0);&quot;&gt;&lt;font style=&quot;&quot;&gt;gettingDataStateHandler&lt;/font&gt;&lt;font style=&quot;&quot;&gt;()&lt;/font&gt;&lt;/font&gt;&lt;/div&gt;" style="ellipse;whiteSpace=wrap;html=1;" parent="1" vertex="1">
          <mxGeometry x="-1720.5" y="8140" width="192" height="60" as="geometry" />
        </mxCell>
        <mxCell id="6P8dWXz_ZmytROIsNSV3-63" style="edgeStyle=orthogonalEdgeStyle;rounded=0;orthogonalLoop=1;jettySize=auto;html=1;entryX=0.5;entryY=0;entryDx=0;entryDy=0;" parent="1" source="6P8dWXz_ZmytROIsNSV3-60" target="6P8dWXz_ZmytROIsNSV3-62" edge="1">
          <mxGeometry relative="1" as="geometry" />
        </mxCell>
        <mxCell id="6P8dWXz_ZmytROIsNSV3-60" value="&lt;div style=&quot;font-family: Consolas, &amp;quot;Courier New&amp;quot;, monospace; white-space: pre; line-height: 27px;&quot;&gt;&lt;font style=&quot;color: rgb(0, 0, 0);&quot;&gt;key = keypad.getKey();&lt;/font&gt;&lt;/div&gt;" style="rounded=0;whiteSpace=wrap;html=1;" parent="1" vertex="1">
          <mxGeometry x="-1764.5" y="8275" width="280" height="30" as="geometry" />
        </mxCell>
        <mxCell id="6P8dWXz_ZmytROIsNSV3-65" style="edgeStyle=orthogonalEdgeStyle;rounded=0;orthogonalLoop=1;jettySize=auto;html=1;entryX=0.5;entryY=0;entryDx=0;entryDy=0;" parent="1" source="6P8dWXz_ZmytROIsNSV3-62" target="6P8dWXz_ZmytROIsNSV3-64" edge="1">
          <mxGeometry relative="1" as="geometry" />
        </mxCell>
        <mxCell id="6P8dWXz_ZmytROIsNSV3-62" value="&lt;div style=&quot;font-family: Consolas, &amp;quot;Courier New&amp;quot;, monospace; line-height: 27px; white-space: pre;&quot;&gt;&lt;div style=&quot;line-height: 27px;&quot;&gt; key == 1&lt;/div&gt;&lt;/div&gt;" style="rhombus;whiteSpace=wrap;html=1;fontColor=default;" parent="1" vertex="1">
          <mxGeometry x="-1750.5" y="8344" width="252" height="124" as="geometry" />
        </mxCell>
        <mxCell id="6P8dWXz_ZmytROIsNSV3-69" style="edgeStyle=orthogonalEdgeStyle;rounded=0;orthogonalLoop=1;jettySize=auto;html=1;entryX=0.5;entryY=0;entryDx=0;entryDy=0;" parent="1" source="6P8dWXz_ZmytROIsNSV3-64" target="6P8dWXz_ZmytROIsNSV3-68" edge="1">
          <mxGeometry relative="1" as="geometry" />
        </mxCell>
        <mxCell id="6P8dWXz_ZmytROIsNSV3-64" value="&lt;div style=&quot;background-color: rgb(255, 255, 255); font-family: Consolas, &amp;quot;Courier New&amp;quot;, monospace; line-height: 27px; white-space: pre;&quot;&gt;Input password&lt;/div&gt;" style="shape=parallelogram;perimeter=parallelogramPerimeter;whiteSpace=wrap;html=1;fixedSize=1;fontColor=default;" parent="1" vertex="1">
          <mxGeometry x="-1443.75" y="8526" width="157" height="48" as="geometry" />
        </mxCell>
        <mxCell id="6P8dWXz_ZmytROIsNSV3-68" value="&lt;div style=&quot;background-color: rgb(255, 255, 255); font-family: Consolas, &amp;quot;Courier New&amp;quot;, monospace; line-height: 27px; white-space: pre;&quot;&gt;&lt;font style=&quot;color: rgb(0, 0, 0);&quot;&gt;enteredPassword&lt;/font&gt;&lt;/div&gt;&lt;div style=&quot;background-color: rgb(255, 255, 255); font-family: Consolas, &amp;quot;Courier New&amp;quot;, monospace; line-height: 27px; white-space: pre;&quot;&gt;&lt;font style=&quot;color: rgb(0, 0, 0);&quot;&gt; == &lt;/font&gt;&lt;/div&gt;&lt;div style=&quot;background-color: rgb(255, 255, 255); font-family: Consolas, &amp;quot;Courier New&amp;quot;, monospace; line-height: 27px; white-space: pre;&quot;&gt;&lt;font style=&quot;color: rgb(0, 0, 0);&quot;&gt;correctPassword&lt;/font&gt;&lt;/div&gt;" style="rhombus;whiteSpace=wrap;html=1;" parent="1" vertex="1">
          <mxGeometry x="-1494.5" y="8622" width="258.5" height="133" as="geometry" />
        </mxCell>
        <mxCell id="6P8dWXz_ZmytROIsNSV3-70" value="&lt;div style=&quot;font-family: Consolas, &amp;quot;Courier New&amp;quot;, monospace; line-height: 27px; white-space: pre;&quot;&gt;&lt;div style=&quot;line-height: 27px;&quot;&gt;&lt;span&gt;humgateUnavailableStateHandler&lt;/span&gt;&lt;span&gt;();&lt;/span&gt;&lt;/div&gt;&lt;/div&gt;" style="shape=process;whiteSpace=wrap;html=1;backgroundOutline=1;strokeColor=default;labelBackgroundColor=default;fontColor=default;fontSize=12;" parent="1" vertex="1">
          <mxGeometry x="-1739.5" y="8802" width="275" height="30" as="geometry" />
        </mxCell>
        <mxCell id="6P8dWXz_ZmytROIsNSV3-71" value="" style="endArrow=classic;html=1;rounded=0;exitX=0;exitY=0.5;exitDx=0;exitDy=0;entryX=0.5;entryY=0;entryDx=0;entryDy=0;edgeStyle=orthogonalEdgeStyle;" parent="1" source="6P8dWXz_ZmytROIsNSV3-68" target="6P8dWXz_ZmytROIsNSV3-70" edge="1">
          <mxGeometry width="50" height="50" relative="1" as="geometry">
            <mxPoint x="-1646.75" y="8672" as="sourcePoint" />
            <mxPoint x="-1596.75" y="8622" as="targetPoint" />
          </mxGeometry>
        </mxCell>
        <mxCell id="6P8dWXz_ZmytROIsNSV3-72" value="&lt;div style=&quot;font-family: Consolas, &amp;quot;Courier New&amp;quot;, monospace; line-height: 27px; white-space: pre;&quot;&gt;&lt;div style=&quot;line-height: 27px;&quot;&gt;&lt;span&gt;humgateAvailableStateHandler&lt;/span&gt;&lt;span&gt;();&lt;/span&gt;&lt;/div&gt;&lt;/div&gt;" style="shape=process;whiteSpace=wrap;html=1;backgroundOutline=1;strokeColor=default;labelBackgroundColor=default;fontColor=default;fontSize=12;" parent="1" vertex="1">
          <mxGeometry x="-1266" y="8802" width="275" height="30" as="geometry" />
        </mxCell>
        <mxCell id="6P8dWXz_ZmytROIsNSV3-74" value="" style="endArrow=classic;html=1;rounded=0;exitX=1;exitY=0.5;exitDx=0;exitDy=0;entryX=0.5;entryY=0;entryDx=0;entryDy=0;edgeStyle=orthogonalEdgeStyle;" parent="1" source="6P8dWXz_ZmytROIsNSV3-68" target="6P8dWXz_ZmytROIsNSV3-72" edge="1">
          <mxGeometry width="50" height="50" relative="1" as="geometry">
            <mxPoint x="-1142.75" y="8732" as="sourcePoint" />
            <mxPoint x="-1092.75" y="8682" as="targetPoint" />
          </mxGeometry>
        </mxCell>
        <mxCell id="6P8dWXz_ZmytROIsNSV3-75" value="&lt;div style=&quot;background-color: rgb(255, 255, 255); font-family: Consolas, &amp;quot;Courier New&amp;quot;, monospace; line-height: 27px; white-space: pre;&quot;&gt;&lt;div style=&quot;line-height: 27px;&quot;&gt;&lt;font style=&quot;color: rgb(0, 0, 0);&quot;&gt;&lt;span&gt;Serial&lt;/span&gt;.&lt;span&gt;available&lt;/span&gt;&lt;span&gt;()&lt;/span&gt; &amp;gt; &lt;span&gt;0&lt;/span&gt;&lt;/font&gt;&lt;/div&gt;&lt;/div&gt;" style="rhombus;whiteSpace=wrap;html=1;fontColor=default;" parent="1" vertex="1">
          <mxGeometry x="-2011" y="8502" width="249" height="123" as="geometry" />
        </mxCell>
        <mxCell id="6P8dWXz_ZmytROIsNSV3-85" style="edgeStyle=orthogonalEdgeStyle;rounded=0;orthogonalLoop=1;jettySize=auto;html=1;" parent="1" source="6P8dWXz_ZmytROIsNSV3-77" target="6P8dWXz_ZmytROIsNSV3-81" edge="1">
          <mxGeometry relative="1" as="geometry" />
        </mxCell>
        <mxCell id="6P8dWXz_ZmytROIsNSV3-77" value="&lt;div style=&quot;background-color: rgb(255, 255, 255); font-family: Consolas, &amp;quot;Courier New&amp;quot;, monospace; line-height: 27px; white-space: pre;&quot;&gt;Read UID&lt;/div&gt;" style="shape=parallelogram;perimeter=parallelogramPerimeter;whiteSpace=wrap;html=1;fixedSize=1;fontColor=default;" parent="1" vertex="1">
          <mxGeometry x="-2154" y="8677" width="154" height="48" as="geometry" />
        </mxCell>
        <mxCell id="6P8dWXz_ZmytROIsNSV3-81" value="&lt;div style=&quot;background-color: rgb(255, 255, 255); font-family: Consolas, &amp;quot;Courier New&amp;quot;, monospace; line-height: 27px; white-space: pre;&quot;&gt;&lt;div style=&quot;line-height: 27px;&quot;&gt;serverWaitStatusHandler() == 1&lt;/div&gt;&lt;/div&gt;" style="rhombus;whiteSpace=wrap;html=1;fontColor=default;" parent="1" vertex="1">
          <mxGeometry x="-2206" y="8800" width="258" height="127" as="geometry" />
        </mxCell>
        <mxCell id="6P8dWXz_ZmytROIsNSV3-82" value="" style="endArrow=classic;html=1;rounded=0;exitX=0;exitY=0.5;exitDx=0;exitDy=0;entryX=0.5;entryY=0;entryDx=0;entryDy=0;edgeStyle=orthogonalEdgeStyle;" parent="1" source="6P8dWXz_ZmytROIsNSV3-75" target="6P8dWXz_ZmytROIsNSV3-77" edge="1">
          <mxGeometry width="50" height="50" relative="1" as="geometry">
            <mxPoint x="-2087" y="8560" as="sourcePoint" />
            <mxPoint x="-2037" y="8510" as="targetPoint" />
          </mxGeometry>
        </mxCell>
        <mxCell id="6P8dWXz_ZmytROIsNSV3-86" value="&lt;div style=&quot;font-family: Consolas, &amp;quot;Courier New&amp;quot;, monospace; line-height: 27px; white-space: pre;&quot;&gt;&lt;div style=&quot;line-height: 27px;&quot;&gt;&lt;div style=&quot;line-height: 27px;&quot;&gt;&lt;span&gt;cargateAvailableHandler();&lt;/span&gt;&lt;/div&gt;&lt;/div&gt;&lt;/div&gt;" style="shape=process;whiteSpace=wrap;html=1;backgroundOutline=1;strokeColor=default;labelBackgroundColor=default;fontColor=default;fontSize=12;" parent="1" vertex="1">
          <mxGeometry x="-1948" y="9003" width="275" height="30" as="geometry" />
        </mxCell>
        <mxCell id="6P8dWXz_ZmytROIsNSV3-87" value="&lt;div style=&quot;font-family: Consolas, &amp;quot;Courier New&amp;quot;, monospace; line-height: 27px; white-space: pre;&quot;&gt;&lt;div style=&quot;line-height: 27px;&quot;&gt;&lt;div style=&quot;line-height: 27px;&quot;&gt;&lt;span&gt;cargateUnavailable&lt;/span&gt;&lt;span&gt;Handler();&lt;/span&gt;&lt;/div&gt;&lt;/div&gt;&lt;/div&gt;" style="shape=process;whiteSpace=wrap;html=1;backgroundOutline=1;strokeColor=default;labelBackgroundColor=default;fontColor=default;fontSize=12;" parent="1" vertex="1">
          <mxGeometry x="-2481" y="9003" width="275" height="30" as="geometry" />
        </mxCell>
        <mxCell id="6P8dWXz_ZmytROIsNSV3-88" value="" style="endArrow=classic;html=1;rounded=0;exitX=1;exitY=0.5;exitDx=0;exitDy=0;entryX=0.5;entryY=0;entryDx=0;entryDy=0;edgeStyle=orthogonalEdgeStyle;" parent="1" source="6P8dWXz_ZmytROIsNSV3-81" target="6P8dWXz_ZmytROIsNSV3-86" edge="1">
          <mxGeometry width="50" height="50" relative="1" as="geometry">
            <mxPoint x="-1670" y="8981" as="sourcePoint" />
            <mxPoint x="-1620" y="8931" as="targetPoint" />
          </mxGeometry>
        </mxCell>
        <mxCell id="6P8dWXz_ZmytROIsNSV3-89" value="" style="endArrow=classic;html=1;rounded=0;exitX=0;exitY=0.5;exitDx=0;exitDy=0;entryX=0.5;entryY=0;entryDx=0;entryDy=0;edgeStyle=orthogonalEdgeStyle;" parent="1" source="6P8dWXz_ZmytROIsNSV3-81" target="6P8dWXz_ZmytROIsNSV3-87" edge="1">
          <mxGeometry width="50" height="50" relative="1" as="geometry">
            <mxPoint x="-2102" y="8921" as="sourcePoint" />
            <mxPoint x="-2052" y="8871" as="targetPoint" />
          </mxGeometry>
        </mxCell>
        <mxCell id="6P8dWXz_ZmytROIsNSV3-90" value="" style="endArrow=classic;html=1;rounded=0;exitX=0;exitY=0.5;exitDx=0;exitDy=0;entryX=0.5;entryY=0;entryDx=0;entryDy=0;edgeStyle=orthogonalEdgeStyle;" parent="1" source="6P8dWXz_ZmytROIsNSV3-62" target="6P8dWXz_ZmytROIsNSV3-75" edge="1">
          <mxGeometry width="50" height="50" relative="1" as="geometry">
            <mxPoint x="-1999.5" y="8382" as="sourcePoint" />
            <mxPoint x="-1949.5" y="8332" as="targetPoint" />
          </mxGeometry>
        </mxCell>
        <mxCell id="6P8dWXz_ZmytROIsNSV3-121" value="" style="shape=curlyBracket;whiteSpace=wrap;html=1;rounded=1;labelPosition=left;verticalLabelPosition=middle;align=right;verticalAlign=middle;" parent="1" vertex="1">
          <mxGeometry x="-1861" y="115" width="37" height="401" as="geometry" />
        </mxCell>
        <mxCell id="6P8dWXz_ZmytROIsNSV3-122" value="&lt;div style=&quot;text-align: left;&quot;&gt;&lt;span style=&quot;color: light-dark(rgb(0, 0, 0), rgb(237, 237, 237)); background-color: transparent;&quot;&gt;//Константы - состояния:&lt;/span&gt;&lt;/div&gt;&lt;div&gt;&lt;font style=&quot;color: rgb(0, 0, 0);&quot;&gt;&lt;br&gt;&lt;/font&gt;&lt;/div&gt;&lt;div style=&quot;text-align: left;&quot;&gt;&lt;div style=&quot;background-color: rgb(255, 255, 255); font-family: Consolas, &amp;quot;Courier New&amp;quot;, monospace; line-height: 27px; white-space: pre;&quot;&gt;&lt;div style=&quot;&quot;&gt;&lt;font style=&quot;color: rgb(0, 0, 0);&quot;&gt;&lt;span&gt;#define&lt;/span&gt; &lt;span&gt;PREPARATION_ST&lt;/span&gt; &lt;span style=&quot;white-space: pre;&quot;&gt;&#x9;&lt;/span&gt;&lt;span style=&quot;white-space: pre;&quot;&gt;&#x9;&lt;span style=&quot;white-space: pre;&quot;&gt;&#x9;&lt;/span&gt;&lt;/span&gt;&lt;span&gt;0&lt;/span&gt;&lt;/font&gt;&lt;/div&gt;&lt;div style=&quot;&quot;&gt;&lt;font style=&quot;color: rgb(0, 0, 0);&quot;&gt;&lt;span&gt;#define&lt;/span&gt; &lt;span&gt;GETTING_DATA_ST&lt;/span&gt; &lt;span style=&quot;white-space: pre;&quot;&gt;&#x9;&lt;span style=&quot;white-space: pre;&quot;&gt;&#x9;&lt;/span&gt;&lt;/span&gt;&lt;span&gt;1&lt;/span&gt;&lt;/font&gt;&lt;/div&gt;&lt;div style=&quot;&quot;&gt;&lt;font style=&quot;color: rgb(0, 0, 0);&quot;&gt;&lt;span&gt;#define&lt;/span&gt; &lt;span&gt;PSWD_CHECK_ST&lt;/span&gt; &lt;span style=&quot;white-space: pre;&quot;&gt;&#x9;&lt;/span&gt;&lt;span style=&quot;white-space: pre;&quot;&gt;&#x9;&lt;span style=&quot;white-space: pre;&quot;&gt;&#x9;&lt;/span&gt;&lt;/span&gt;&lt;span&gt;2&lt;/span&gt;&lt;/font&gt;&lt;/div&gt;&lt;div style=&quot;&quot;&gt;&lt;font style=&quot;color: rgb(0, 0, 0);&quot;&gt;&lt;span&gt;#define&lt;/span&gt; &lt;span&gt;HUMGATE_UNAVAILABLE_ST&lt;/span&gt; &lt;span style=&quot;white-space: pre;&quot;&gt;&#x9;&lt;span style=&quot;white-space: pre;&quot;&gt;&#x9;&lt;/span&gt;&lt;/span&gt;&lt;span&gt;3&lt;/span&gt;&lt;/font&gt;&lt;/div&gt;&lt;div style=&quot;&quot;&gt;&lt;font style=&quot;color: rgb(0, 0, 0);&quot;&gt;&lt;span&gt;#define&lt;/span&gt; &lt;span&gt;HUMGATE_AVAILABLE_ST&lt;/span&gt; &lt;span style=&quot;white-space: pre;&quot;&gt;&#x9;&lt;span style=&quot;white-space: pre;&quot;&gt;&#x9;&lt;/span&gt;&lt;/span&gt;&lt;span&gt;4&lt;/span&gt;&lt;/font&gt;&lt;/div&gt;&lt;div style=&quot;&quot;&gt;&lt;font style=&quot;color: rgb(0, 0, 0);&quot;&gt;&lt;span&gt;#define&lt;/span&gt; &lt;span&gt;SERVER_WAIT_STATUS_ST&lt;/span&gt; &lt;span style=&quot;white-space: pre;&quot;&gt;&#x9;&lt;span style=&quot;white-space: pre;&quot;&gt;&#x9;&lt;/span&gt;&lt;/span&gt;&lt;span&gt;5&lt;/span&gt;&lt;span&gt; &amp;nbsp; &amp;nbsp; &lt;/span&gt;&lt;/font&gt;&lt;/div&gt;&lt;div style=&quot;&quot;&gt;&lt;font style=&quot;color: rgb(0, 0, 0);&quot;&gt;&lt;span&gt;#define&lt;/span&gt; &lt;span&gt;CARGATE_UNAVAILABLE_ST&lt;/span&gt; &lt;span style=&quot;white-space: pre;&quot;&gt;&#x9;&lt;span style=&quot;white-space: pre;&quot;&gt;&#x9;&lt;/span&gt;&lt;/span&gt;&lt;span&gt;6&lt;/span&gt;&lt;span&gt; &amp;nbsp;&lt;/span&gt;&lt;/font&gt;&lt;/div&gt;&lt;div style=&quot;&quot;&gt;&lt;font style=&quot;color: rgb(0, 0, 0);&quot;&gt;&lt;span&gt;#define&lt;/span&gt; &lt;span&gt;CARGATE_AVAILABLE_ST&lt;/span&gt; &lt;span style=&quot;white-space: pre;&quot;&gt;&#x9;&lt;span style=&quot;white-space: pre;&quot;&gt;&#x9;&lt;/span&gt;&lt;/span&gt;&lt;span&gt;7&lt;/span&gt;&lt;span&gt; &lt;/span&gt;&lt;/font&gt;&lt;/div&gt;&lt;div style=&quot;&quot;&gt;&lt;font style=&quot;color: rgb(0, 0, 0);&quot;&gt;&lt;span&gt;&lt;br&gt;&lt;/span&gt;&lt;/font&gt;&lt;/div&gt;&lt;div style=&quot;&quot;&gt;&lt;font style=&quot;color: rgb(0, 0, 0);&quot;&gt;&lt;span&gt;&lt;br&gt;&lt;/span&gt;&lt;/font&gt;&lt;/div&gt;&lt;div style=&quot;&quot;&gt;&lt;font style=&quot;color: rgb(0, 0, 0);&quot;&gt;&lt;span&gt;&lt;br&gt;&lt;/span&gt;&lt;/font&gt;&lt;/div&gt;&lt;div style=&quot;&quot;&gt;&lt;font style=&quot;color: rgb(0, 0, 0);&quot;&gt;&lt;span&gt;//Глобальные переменные:&amp;nbsp; &lt;/span&gt;&lt;/font&gt;&lt;/div&gt;&lt;div style=&quot;&quot;&gt;&lt;font style=&quot;color: rgb(0, 0, 0);&quot;&gt;&lt;span&gt;int state //&amp;nbsp;    - Хранит код текущего состояния системы&lt;/span&gt;&lt;/font&gt;&lt;/div&gt;&lt;/div&gt;&lt;/div&gt;" style="text;html=1;align=center;verticalAlign=middle;whiteSpace=wrap;rounded=0;" parent="1" vertex="1">
          <mxGeometry x="-1855.5" y="84" width="433" height="468" as="geometry" />
        </mxCell>
        <mxCell id="6P8dWXz_ZmytROIsNSV3-123" value="" style="shape=curlyBracket;whiteSpace=wrap;html=1;rounded=1;labelPosition=left;verticalLabelPosition=middle;align=right;verticalAlign=middle;" parent="1" vertex="1">
          <mxGeometry x="-1856.13" y="2558" width="37" height="298" as="geometry" />
        </mxCell>
        <mxCell id="6P8dWXz_ZmytROIsNSV3-124" value="&lt;div style=&quot;text-align: left;&quot;&gt;&lt;span style=&quot;background-color: transparent;&quot;&gt;&lt;font style=&quot;color: rgb(0, 0, 0);&quot;&gt;//Константы - состояния:&lt;/font&gt;&lt;/span&gt;&lt;/div&gt;&lt;div&gt;&lt;font style=&quot;color: rgb(0, 0, 0);&quot;&gt;&lt;br&gt;&lt;/font&gt;&lt;/div&gt;&lt;div style=&quot;text-align: left;&quot;&gt;&lt;div style=&quot;background-color: rgb(255, 255, 255); font-family: Consolas, &amp;quot;Courier New&amp;quot;, monospace; line-height: 27px; white-space: pre;&quot;&gt;&lt;div style=&quot;&quot;&gt;&lt;div style=&quot;line-height: 27px;&quot;&gt;&lt;div style=&quot;&quot;&gt;&lt;font style=&quot;color: rgb(0, 0, 0);&quot;&gt;#define OPEN_CAR_GATE &amp;nbsp; &amp;nbsp; &amp;nbsp; &amp;nbsp; &amp;nbsp; 0&lt;/font&gt;&lt;/div&gt;&lt;div style=&quot;&quot;&gt;&lt;font style=&quot;color: rgb(0, 0, 0);&quot;&gt;#define WAIT_CAR &amp;nbsp; &amp;nbsp; &amp;nbsp; &amp;nbsp; &amp;nbsp; &amp;nbsp; &amp;nbsp; &amp;nbsp;1&lt;/font&gt;&lt;/div&gt;&lt;div style=&quot;&quot;&gt;&lt;font style=&quot;color: rgb(0, 0, 0);&quot;&gt;#define WAIT_CAR_PASS &amp;nbsp; &amp;nbsp; &amp;nbsp; &amp;nbsp; &amp;nbsp; 2&lt;/font&gt;&lt;/div&gt;&lt;div style=&quot;&quot;&gt;&lt;font style=&quot;color: rgb(0, 0, 0);&quot;&gt;#define WAIT_AFTER_CAR_PASS &amp;nbsp; &amp;nbsp; 3&lt;/font&gt;&lt;/div&gt;&lt;div style=&quot;&quot;&gt;&lt;font style=&quot;color: rgb(0, 0, 0);&quot;&gt;#define CLOSE_CAR_GATE &amp;nbsp; &amp;nbsp; &amp;nbsp; &amp;nbsp; &amp;nbsp;4&lt;/font&gt;&lt;/div&gt;&lt;/div&gt;&lt;/div&gt;&lt;div style=&quot;&quot;&gt;&lt;font style=&quot;color: rgb(0, 0, 0);&quot;&gt;&lt;span&gt;&lt;br&gt;&lt;/span&gt;&lt;/font&gt;&lt;/div&gt;&lt;div style=&quot;&quot;&gt;&lt;font style=&quot;color: rgb(0, 0, 0);&quot;&gt;&lt;span&gt;&lt;br&gt;&lt;/span&gt;&lt;/font&gt;&lt;/div&gt;&lt;div style=&quot;&quot;&gt;&lt;font style=&quot;color: rgb(0, 0, 0);&quot;&gt;&lt;span&gt;//Глобальные переменные:&amp;nbsp; &lt;/span&gt;&lt;/font&gt;&lt;/div&gt;&lt;div style=&quot;&quot;&gt;&lt;font style=&quot;color: rgb(0, 0, 0);&quot;&gt;&lt;span&gt;int state //&amp;nbsp;    - Хранит код текущего стостояния системы&lt;/span&gt;&lt;/font&gt;&lt;/div&gt;&lt;/div&gt;&lt;/div&gt;" style="text;html=1;align=center;verticalAlign=middle;whiteSpace=wrap;rounded=0;" parent="1" vertex="1">
          <mxGeometry x="-1837.5" y="2484" width="433" height="468" as="geometry" />
        </mxCell>
        <mxCell id="6P8dWXz_ZmytROIsNSV3-127" value="&lt;div style=&quot;background-color: rgb(255, 255, 255); font-family: Consolas, &amp;quot;Courier New&amp;quot;, monospace; line-height: 27px; white-space: pre;&quot;&gt;&lt;div style=&quot;line-height: 27px;&quot;&gt;&lt;font style=&quot;color: rgb(0, 0, 0);&quot;&gt;handleCarGateLogic()&lt;/font&gt;&lt;/div&gt;&lt;/div&gt;" style="ellipse;whiteSpace=wrap;html=1;" parent="1" vertex="1">
          <mxGeometry x="-2316" y="2556" width="169.38" height="48" as="geometry" />
        </mxCell>
        <mxCell id="6P8dWXz_ZmytROIsNSV3-154" style="edgeStyle=orthogonalEdgeStyle;rounded=0;orthogonalLoop=1;jettySize=auto;html=1;entryX=0.5;entryY=0;entryDx=0;entryDy=0;" parent="1" source="6P8dWXz_ZmytROIsNSV3-129" target="6P8dWXz_ZmytROIsNSV3-134" edge="1">
          <mxGeometry relative="1" as="geometry" />
        </mxCell>
        <mxCell id="6P8dWXz_ZmytROIsNSV3-129" value="state" style="rhombus;whiteSpace=wrap;html=1;" parent="1" vertex="1">
          <mxGeometry x="-2306.26" y="2626" width="150" height="90" as="geometry" />
        </mxCell>
        <mxCell id="6P8dWXz_ZmytROIsNSV3-130" value="" style="endArrow=classic;html=1;rounded=0;fontSize=12;startSize=8;endSize=8;curved=1;exitX=0.5;exitY=1;exitDx=0;exitDy=0;entryX=0.5;entryY=0;entryDx=0;entryDy=0;" parent="1" source="6P8dWXz_ZmytROIsNSV3-127" target="6P8dWXz_ZmytROIsNSV3-129" edge="1">
          <mxGeometry width="50" height="50" relative="1" as="geometry">
            <mxPoint x="-2181.26" y="2626" as="sourcePoint" />
            <mxPoint x="-2131.26" y="2576" as="targetPoint" />
          </mxGeometry>
        </mxCell>
        <mxCell id="6P8dWXz_ZmytROIsNSV3-133" style="edgeStyle=none;curved=1;rounded=0;orthogonalLoop=1;jettySize=auto;html=1;exitX=0.5;exitY=1;exitDx=0;exitDy=0;entryX=0.5;entryY=0;entryDx=0;entryDy=0;fontSize=12;startSize=8;endSize=8;fontColor=#000000;" parent="1" source="6P8dWXz_ZmytROIsNSV3-134" target="6P8dWXz_ZmytROIsNSV3-136" edge="1">
          <mxGeometry relative="1" as="geometry" />
        </mxCell>
        <mxCell id="6P8dWXz_ZmytROIsNSV3-134" value="&lt;div style=&quot;font-family: Consolas, &amp;quot;Courier New&amp;quot;, monospace; line-height: 27px; white-space: pre;&quot;&gt;&lt;div style=&quot;line-height: 27px;&quot;&gt;&lt;div style=&quot;line-height: 27px;&quot;&gt;&lt;div style=&quot;line-height: 27px;&quot;&gt;&lt;span style=&quot;&quot;&gt;open_car_Gate&lt;/span&gt;&lt;span style=&quot;&quot;&gt;();&lt;/span&gt;&lt;/div&gt;&lt;/div&gt;&lt;/div&gt;&lt;/div&gt;" style="shape=process;whiteSpace=wrap;html=1;backgroundOutline=1;strokeColor=default;labelBackgroundColor=default;fontColor=#000000;fontSize=12;" parent="1" vertex="1">
          <mxGeometry x="-2368.75" y="2772" width="275" height="30" as="geometry" />
        </mxCell>
        <mxCell id="6P8dWXz_ZmytROIsNSV3-135" style="edgeStyle=none;curved=1;rounded=0;orthogonalLoop=1;jettySize=auto;html=1;exitX=0.5;exitY=1;exitDx=0;exitDy=0;entryX=0.5;entryY=0;entryDx=0;entryDy=0;fontSize=12;startSize=8;endSize=8;fontColor=#000000;" parent="1" source="6P8dWXz_ZmytROIsNSV3-136" target="6P8dWXz_ZmytROIsNSV3-138" edge="1">
          <mxGeometry relative="1" as="geometry" />
        </mxCell>
        <mxCell id="6P8dWXz_ZmytROIsNSV3-136" value="&lt;div style=&quot;font-family: Consolas, &amp;quot;Courier New&amp;quot;, monospace; line-height: 27px; white-space: pre;&quot;&gt;&lt;div style=&quot;line-height: 27px;&quot;&gt;&lt;div style=&quot;line-height: 27px;&quot;&gt;&lt;div style=&quot;line-height: 27px;&quot;&gt;&lt;span style=&quot;&quot;&gt;waitForCar&lt;/span&gt;&lt;span style=&quot;&quot;&gt;();&lt;/span&gt;&lt;/div&gt;&lt;/div&gt;&lt;/div&gt;&lt;/div&gt;" style="shape=process;whiteSpace=wrap;html=1;backgroundOutline=1;strokeColor=default;labelBackgroundColor=default;fontColor=#000000;fontSize=12;" parent="1" vertex="1">
          <mxGeometry x="-2368.75" y="2852" width="275" height="30" as="geometry" />
        </mxCell>
        <mxCell id="6P8dWXz_ZmytROIsNSV3-137" style="edgeStyle=none;curved=1;rounded=0;orthogonalLoop=1;jettySize=auto;html=1;exitX=0.5;exitY=1;exitDx=0;exitDy=0;entryX=0.5;entryY=0;entryDx=0;entryDy=0;fontSize=12;startSize=8;endSize=8;fontColor=#000000;" parent="1" source="6P8dWXz_ZmytROIsNSV3-138" target="6P8dWXz_ZmytROIsNSV3-140" edge="1">
          <mxGeometry relative="1" as="geometry" />
        </mxCell>
        <mxCell id="6P8dWXz_ZmytROIsNSV3-138" value="&lt;div style=&quot;font-family: Consolas, &amp;quot;Courier New&amp;quot;, monospace; line-height: 27px; white-space: pre;&quot;&gt;&lt;div style=&quot;line-height: 27px;&quot;&gt;&lt;div style=&quot;line-height: 27px;&quot;&gt;&lt;div style=&quot;line-height: 27px;&quot;&gt;&lt;span style=&quot;&quot;&gt;CarPass&lt;/span&gt;&lt;span style=&quot;&quot;&gt;();&lt;/span&gt;&lt;/div&gt;&lt;/div&gt;&lt;/div&gt;&lt;/div&gt;" style="shape=process;whiteSpace=wrap;html=1;backgroundOutline=1;strokeColor=default;labelBackgroundColor=default;fontColor=#000000;fontSize=12;" parent="1" vertex="1">
          <mxGeometry x="-2368.75" y="2932" width="275" height="30" as="geometry" />
        </mxCell>
        <mxCell id="6P8dWXz_ZmytROIsNSV3-139" style="edgeStyle=none;curved=1;rounded=0;orthogonalLoop=1;jettySize=auto;html=1;exitX=0.5;exitY=1;exitDx=0;exitDy=0;entryX=0.5;entryY=0;entryDx=0;entryDy=0;fontSize=12;startSize=8;endSize=8;fontColor=#000000;" parent="1" source="6P8dWXz_ZmytROIsNSV3-140" target="6P8dWXz_ZmytROIsNSV3-142" edge="1">
          <mxGeometry relative="1" as="geometry" />
        </mxCell>
        <mxCell id="6P8dWXz_ZmytROIsNSV3-140" value="&lt;div style=&quot;font-family: Consolas, &amp;quot;Courier New&amp;quot;, monospace; line-height: 27px; white-space: pre;&quot;&gt;&lt;div style=&quot;line-height: 27px;&quot;&gt;&lt;div style=&quot;line-height: 27px;&quot;&gt;&lt;div style=&quot;line-height: 27px;&quot;&gt;&lt;span style=&quot;&quot;&gt;waitAfterCarPass&lt;/span&gt;&lt;span style=&quot;&quot;&gt;();&lt;/span&gt;&lt;/div&gt;&lt;/div&gt;&lt;/div&gt;&lt;/div&gt;" style="shape=process;whiteSpace=wrap;html=1;backgroundOutline=1;strokeColor=default;labelBackgroundColor=default;fontColor=#000000;fontSize=12;" parent="1" vertex="1">
          <mxGeometry x="-2368.75" y="3012" width="275" height="30" as="geometry" />
        </mxCell>
        <mxCell id="6P8dWXz_ZmytROIsNSV3-155" style="edgeStyle=orthogonalEdgeStyle;rounded=0;orthogonalLoop=1;jettySize=auto;html=1;entryX=0.5;entryY=0;entryDx=0;entryDy=0;" parent="1" source="6P8dWXz_ZmytROIsNSV3-142" target="6P8dWXz_ZmytROIsNSV3-150" edge="1">
          <mxGeometry relative="1" as="geometry" />
        </mxCell>
        <mxCell id="6P8dWXz_ZmytROIsNSV3-142" value="&lt;div style=&quot;font-family: Consolas, &amp;quot;Courier New&amp;quot;, monospace; line-height: 27px; white-space: pre;&quot;&gt;&lt;div style=&quot;line-height: 27px;&quot;&gt;&lt;div style=&quot;line-height: 27px;&quot;&gt;&lt;div style=&quot;line-height: 27px;&quot;&gt;&lt;span style=&quot;&quot;&gt;closeCarGate&lt;/span&gt;&lt;span style=&quot;&quot;&gt;();&lt;/span&gt;&lt;/div&gt;&lt;/div&gt;&lt;/div&gt;&lt;/div&gt;" style="shape=process;whiteSpace=wrap;html=1;backgroundOutline=1;strokeColor=default;labelBackgroundColor=default;fontColor=#000000;fontSize=12;" parent="1" vertex="1">
          <mxGeometry x="-2368.75" y="3092" width="275" height="30" as="geometry" />
        </mxCell>
        <mxCell id="6P8dWXz_ZmytROIsNSV3-144" value="&lt;div style=&quot;background-color: rgb(255, 255, 255); font-family: Consolas, &amp;quot;Courier New&amp;quot;, monospace; line-height: 27px; white-space: pre;&quot;&gt;&lt;div style=&quot;line-height: 27px;&quot;&gt;&lt;div style=&quot;line-height: 27px;&quot;&gt;&lt;span style=&quot;&quot;&gt;OPEN_CAR_GATE&lt;/span&gt;&lt;/div&gt;&lt;/div&gt;&lt;/div&gt;" style="text;html=1;align=left;verticalAlign=middle;whiteSpace=wrap;rounded=0;fontColor=#000000;fontSize=14;" parent="1" vertex="1">
          <mxGeometry x="-2051.25" y="2772" width="60" height="30" as="geometry" />
        </mxCell>
        <mxCell id="6P8dWXz_ZmytROIsNSV3-145" value="&lt;div style=&quot;background-color: rgb(255, 255, 255); font-family: Consolas, &amp;quot;Courier New&amp;quot;, monospace; line-height: 27px; white-space: pre;&quot;&gt;&lt;span style=&quot;&quot;&gt;WAIT_CAR&lt;/span&gt;&lt;/div&gt;" style="text;html=1;align=left;verticalAlign=middle;whiteSpace=wrap;rounded=0;fontColor=#000000;fontSize=14;" parent="1" vertex="1">
          <mxGeometry x="-2051.25" y="2852" width="60" height="30" as="geometry" />
        </mxCell>
        <mxCell id="6P8dWXz_ZmytROIsNSV3-146" value="&lt;div style=&quot;background-color: rgb(255, 255, 255); font-family: Consolas, &amp;quot;Courier New&amp;quot;, monospace; line-height: 27px; white-space: pre;&quot;&gt;&lt;div style=&quot;line-height: 27px;&quot;&gt;&lt;div style=&quot;line-height: 27px;&quot;&gt;&lt;span style=&quot;&quot;&gt;WAIT_CAR_PASS&lt;/span&gt;&lt;/div&gt;&lt;/div&gt;&lt;/div&gt;" style="text;html=1;align=left;verticalAlign=middle;whiteSpace=wrap;rounded=0;fontColor=#000000;fontSize=14;" parent="1" vertex="1">
          <mxGeometry x="-2051.25" y="2932" width="60" height="30" as="geometry" />
        </mxCell>
        <mxCell id="6P8dWXz_ZmytROIsNSV3-147" value="&lt;div style=&quot;background-color: rgb(255, 255, 255); font-family: Consolas, &amp;quot;Courier New&amp;quot;, monospace; line-height: 27px; white-space: pre;&quot;&gt;&lt;div style=&quot;line-height: 27px;&quot;&gt;&lt;div style=&quot;line-height: 27px;&quot;&gt;&lt;span style=&quot;&quot;&gt;WAIT_AFTER_CAR_PASS&lt;/span&gt;&lt;/div&gt;&lt;/div&gt;&lt;/div&gt;" style="text;html=1;align=left;verticalAlign=middle;whiteSpace=wrap;rounded=0;fontColor=#000000;fontSize=14;" parent="1" vertex="1">
          <mxGeometry x="-2051.25" y="3012" width="60" height="30" as="geometry" />
        </mxCell>
        <mxCell id="6P8dWXz_ZmytROIsNSV3-148" value="&lt;div style=&quot;background-color: rgb(255, 255, 255); font-family: Consolas, &amp;quot;Courier New&amp;quot;, monospace; line-height: 27px; white-space: pre;&quot;&gt;&lt;div style=&quot;line-height: 27px;&quot;&gt;&lt;div style=&quot;line-height: 27px;&quot;&gt;&lt;span style=&quot;&quot;&gt;CLOSE_CAR_GATE&lt;/span&gt;&lt;/div&gt;&lt;/div&gt;&lt;/div&gt;" style="text;html=1;align=left;verticalAlign=middle;whiteSpace=wrap;rounded=0;fontColor=#000000;fontSize=14;" parent="1" vertex="1">
          <mxGeometry x="-2051.25" y="3092" width="60" height="30" as="geometry" />
        </mxCell>
        <mxCell id="6P8dWXz_ZmytROIsNSV3-149" value="&lt;font style=&quot;font-size: 25px;&quot;&gt;Ворота&lt;/font&gt;" style="text;html=1;align=center;verticalAlign=middle;whiteSpace=wrap;rounded=0;" parent="1" vertex="1">
          <mxGeometry x="-2143.75" y="2412" width="195" height="80" as="geometry" />
        </mxCell>
        <mxCell id="6P8dWXz_ZmytROIsNSV3-150" value="&lt;div style=&quot;background-color: rgb(255, 255, 255); font-family: Consolas, &amp;quot;Courier New&amp;quot;, monospace; line-height: 27px; white-space: pre;&quot;&gt;end&lt;/div&gt;" style="ellipse;whiteSpace=wrap;html=1;" parent="1" vertex="1">
          <mxGeometry x="-2309.38" y="3180" width="156.25" height="40" as="geometry" />
        </mxCell>
        <mxCell id="6P8dWXz_ZmytROIsNSV3-157" value="" style="shape=curlyBracket;whiteSpace=wrap;html=1;rounded=1;labelPosition=left;verticalLabelPosition=middle;align=right;verticalAlign=middle;" parent="1" vertex="1">
          <mxGeometry x="-1879.75" y="1347" width="37" height="309" as="geometry" />
        </mxCell>
        <mxCell id="6P8dWXz_ZmytROIsNSV3-158" value="&lt;div style=&quot;text-align: left;&quot;&gt;&lt;span style=&quot;background-color: transparent;&quot;&gt;&lt;font style=&quot;color: rgb(0, 0, 0);&quot;&gt;//Константы - состояния:&lt;/font&gt;&lt;/span&gt;&lt;/div&gt;&lt;div&gt;&lt;font style=&quot;color: rgb(0, 0, 0);&quot;&gt;&lt;br&gt;&lt;/font&gt;&lt;/div&gt;&lt;div style=&quot;text-align: left;&quot;&gt;&lt;div style=&quot;background-color: rgb(255, 255, 255); font-family: Consolas, &amp;quot;Courier New&amp;quot;, monospace; line-height: 27px; white-space: pre;&quot;&gt;&lt;div style=&quot;&quot;&gt;&lt;div style=&quot;line-height: 27px;&quot;&gt;&lt;div style=&quot;&quot;&gt;&lt;div style=&quot;line-height: 27px;&quot;&gt;&lt;div style=&quot;&quot;&gt;&lt;font style=&quot;color: rgb(0, 0, 0);&quot;&gt;&lt;span&gt;#define&lt;/span&gt; &lt;span&gt;OPEN_SOLENOID&lt;/span&gt; &amp;nbsp; &amp;nbsp; &amp;nbsp; &lt;span&gt;0&lt;/span&gt;&lt;/font&gt;&lt;/div&gt;&lt;div style=&quot;&quot;&gt;&lt;font style=&quot;color: rgb(0, 0, 0);&quot;&gt;&lt;span&gt;#define&lt;/span&gt; &lt;span&gt;OPEN_GATE&lt;/span&gt; &amp;nbsp; &amp;nbsp; &amp;nbsp; &amp;nbsp; &amp;nbsp; &lt;span&gt;1&lt;/span&gt;&lt;/font&gt;&lt;/div&gt;&lt;div style=&quot;&quot;&gt;&lt;font style=&quot;color: rgb(0, 0, 0);&quot;&gt;&lt;span&gt;#define&lt;/span&gt; &lt;span&gt;WAIT_PEDESTRIAN&lt;/span&gt; &amp;nbsp; &amp;nbsp; &lt;span&gt;2&lt;/span&gt;&lt;/font&gt;&lt;/div&gt;&lt;div style=&quot;&quot;&gt;&lt;font style=&quot;color: rgb(0, 0, 0);&quot;&gt;&lt;span&gt;#define&lt;/span&gt; &lt;span&gt;PEDESTRIAN_PASS&lt;/span&gt; &amp;nbsp; &amp;nbsp; &lt;span&gt;3&lt;/span&gt;&lt;/font&gt;&lt;/div&gt;&lt;div style=&quot;&quot;&gt;&lt;font style=&quot;color: rgb(0, 0, 0);&quot;&gt;&lt;span&gt;#define&lt;/span&gt; &lt;span&gt;WAIT_AFTER_PASS&lt;/span&gt; &amp;nbsp; &amp;nbsp; &lt;span&gt;4&lt;/span&gt;&lt;/font&gt;&lt;/div&gt;&lt;div style=&quot;&quot;&gt;&lt;font style=&quot;color: rgb(0, 0, 0);&quot;&gt;&lt;span&gt;#define&lt;/span&gt; &lt;span&gt;CLOSE_GATE&lt;/span&gt; &amp;nbsp; &amp;nbsp; &amp;nbsp; &amp;nbsp; &amp;nbsp;&lt;span&gt;5&lt;/span&gt;&lt;/font&gt;&lt;/div&gt;&lt;div style=&quot;&quot;&gt;&lt;font style=&quot;color: rgb(0, 0, 0);&quot;&gt;&lt;span&gt;#define&lt;/span&gt; &lt;span&gt;CLOSE_SOLENOID&lt;/span&gt; &amp;nbsp; &amp;nbsp; &amp;nbsp;&lt;span&gt;6&lt;/span&gt;&lt;/font&gt;&lt;/div&gt;&lt;/div&gt;&lt;/div&gt;&lt;/div&gt;&lt;/div&gt;&lt;div style=&quot;&quot;&gt;&lt;font style=&quot;color: rgb(0, 0, 0);&quot;&gt;&lt;span&gt;&lt;br&gt;&lt;/span&gt;&lt;/font&gt;&lt;/div&gt;&lt;div style=&quot;&quot;&gt;&lt;font style=&quot;color: rgb(0, 0, 0);&quot;&gt;&lt;span&gt;//Глобальные переменные:&amp;nbsp; &lt;/span&gt;&lt;/font&gt;&lt;/div&gt;&lt;div style=&quot;&quot;&gt;&lt;font style=&quot;color: rgb(0, 0, 0);&quot;&gt;int state //&amp;nbsp;    - Хранит код текущего состояния системы&lt;/font&gt;&lt;/div&gt;&lt;/div&gt;&lt;/div&gt;" style="text;html=1;align=center;verticalAlign=middle;whiteSpace=wrap;rounded=0;" parent="1" vertex="1">
          <mxGeometry x="-1870.5" y="1306" width="433" height="399" as="geometry" />
        </mxCell>
        <mxCell id="6P8dWXz_ZmytROIsNSV3-161" value="" style="shape=curlyBracket;whiteSpace=wrap;html=1;rounded=1;labelPosition=left;verticalLabelPosition=middle;align=right;verticalAlign=middle;" parent="1" vertex="1">
          <mxGeometry x="-1745.25" y="3570" width="37" height="420" as="geometry" />
        </mxCell>
        <mxCell id="6P8dWXz_ZmytROIsNSV3-162" value="&lt;div style=&quot;text-align: left;&quot;&gt;&lt;span style=&quot;background-color: transparent;&quot;&gt;&lt;font style=&quot;color: rgb(0, 0, 0);&quot;&gt;//Константы - состояния:&lt;/font&gt;&lt;/span&gt;&lt;/div&gt;&lt;div&gt;&lt;font style=&quot;color: rgb(0, 0, 0);&quot;&gt;&lt;br&gt;&lt;/font&gt;&lt;/div&gt;&lt;div style=&quot;text-align: left;&quot;&gt;&lt;div style=&quot;background-color: rgb(255, 255, 255); font-family: Consolas, &amp;quot;Courier New&amp;quot;, monospace; line-height: 27px; white-space: pre;&quot;&gt;&lt;div style=&quot;&quot;&gt;&lt;div style=&quot;line-height: 27px;&quot;&gt;&lt;div style=&quot;&quot;&gt;&lt;div style=&quot;line-height: 27px;&quot;&gt;&lt;div style=&quot;&quot;&gt;&lt;font style=&quot;color: rgb(0, 0, 0);&quot;&gt;&lt;span&gt;#define&lt;/span&gt; &lt;span&gt;OPEN_SOLENOID&lt;/span&gt; &amp;nbsp; &amp;nbsp; &amp;nbsp; &lt;span&gt;0&lt;/span&gt;&lt;/font&gt;&lt;/div&gt;&lt;div style=&quot;&quot;&gt;&lt;font style=&quot;color: rgb(0, 0, 0);&quot;&gt;&lt;span&gt;#define&lt;/span&gt; &lt;span&gt;OPEN_GATE&lt;/span&gt; &amp;nbsp; &amp;nbsp; &amp;nbsp; &amp;nbsp; &amp;nbsp; &lt;span&gt;1&lt;/span&gt;&lt;/font&gt;&lt;/div&gt;&lt;div style=&quot;&quot;&gt;&lt;font style=&quot;color: rgb(0, 0, 0);&quot;&gt;&lt;span&gt;#define&lt;/span&gt; &lt;span&gt;WAIT_PEDESTRIAN&lt;/span&gt; &amp;nbsp; &amp;nbsp; &lt;span&gt;2&lt;/span&gt;&lt;/font&gt;&lt;/div&gt;&lt;div style=&quot;&quot;&gt;&lt;font style=&quot;color: rgb(0, 0, 0);&quot;&gt;&lt;span&gt;#define&lt;/span&gt; &lt;span&gt;PEDESTRIAN_PASS&lt;/span&gt; &amp;nbsp; &amp;nbsp; &lt;span&gt;3&lt;/span&gt;&lt;/font&gt;&lt;/div&gt;&lt;div style=&quot;&quot;&gt;&lt;font style=&quot;color: rgb(0, 0, 0);&quot;&gt;&lt;span&gt;#define&lt;/span&gt; &lt;span&gt;WAIT_AFTER_PASS&lt;/span&gt; &amp;nbsp; &amp;nbsp; &lt;span&gt;4&lt;/span&gt;&lt;/font&gt;&lt;/div&gt;&lt;div style=&quot;&quot;&gt;&lt;font style=&quot;color: rgb(0, 0, 0);&quot;&gt;&lt;span&gt;#define&lt;/span&gt; &lt;span&gt;CLOSE_GATE&lt;/span&gt; &amp;nbsp; &amp;nbsp; &amp;nbsp; &amp;nbsp; &amp;nbsp;&lt;span&gt;5&lt;/span&gt;&lt;/font&gt;&lt;/div&gt;&lt;div style=&quot;&quot;&gt;&lt;font style=&quot;color: rgb(0, 0, 0);&quot;&gt;&lt;span&gt;#define&lt;/span&gt; &lt;span&gt;CLOSE_SOLENOID&lt;/span&gt; &amp;nbsp; &amp;nbsp; &amp;nbsp;&lt;span&gt;6&lt;/span&gt;&lt;/font&gt;&lt;/div&gt;&lt;/div&gt;&lt;/div&gt;&lt;/div&gt;&lt;/div&gt;&lt;div style=&quot;&quot;&gt;&lt;font style=&quot;color: rgb(0, 0, 0);&quot;&gt;&lt;span&gt;&lt;br&gt;&lt;/span&gt;&lt;/font&gt;&lt;/div&gt;&lt;div style=&quot;&quot;&gt;&lt;font style=&quot;color: rgb(0, 0, 0);&quot;&gt;&lt;span&gt;//Глобальные переменные:&amp;nbsp; &lt;/span&gt;&lt;/font&gt;&lt;/div&gt;&lt;div style=&quot;&quot;&gt;&lt;font style=&quot;color: rgb(0, 0, 0);&quot;&gt;int state //&amp;nbsp;    - Хранит код текущего состояния системы&lt;/font&gt;&lt;/div&gt;&lt;div style=&quot;&quot;&gt;&lt;font style=&quot;color: rgb(0, 0, 0);&quot;&gt;&lt;br&gt;&lt;/font&gt;&lt;/div&gt;&lt;div style=&quot;&quot;&gt;&lt;font style=&quot;color: rgb(0, 0, 0);&quot;&gt;//Функции управления электроникой&lt;/font&gt;&lt;/div&gt;&lt;div style=&quot;&quot;&gt;&lt;font style=&quot;color: rgb(0, 0, 0);&quot;&gt;&lt;span style=&quot;text-align: center; background-color: rgb(251, 251, 251);&quot;&gt;checkPIR&lt;/span&gt;&lt;span style=&quot;text-align: center; background-color: rgb(251, 251, 251);&quot;&gt;(); //   - Возвращает результаты измерения датчика  &lt;/span&gt;&lt;/font&gt;&lt;/div&gt;&lt;div style=&quot;&quot;&gt;&lt;font style=&quot;color: rgb(0, 0, 0);&quot;&gt;&lt;span style=&quot;text-align: center; background-color: rgb(251, 251, 251);&quot;&gt;close_sens(); // - Возвращает состояние концевика&lt;/span&gt;&lt;/font&gt;&lt;/div&gt;&lt;/div&gt;&lt;/div&gt;" style="text;html=1;align=center;verticalAlign=middle;whiteSpace=wrap;rounded=0;" parent="1" vertex="1">
          <mxGeometry x="-1686" y="3528" width="384.5" height="504" as="geometry" />
        </mxCell>
        <mxCell id="6P8dWXz_ZmytROIsNSV3-166" value="" style="shape=curlyBracket;whiteSpace=wrap;html=1;rounded=1;labelPosition=left;verticalLabelPosition=middle;align=right;verticalAlign=middle;" parent="1" vertex="1">
          <mxGeometry x="-1572" y="6104" width="37" height="394" as="geometry" />
        </mxCell>
        <mxCell id="6P8dWXz_ZmytROIsNSV3-167" value="&lt;div style=&quot;text-align: left;&quot;&gt;&lt;span style=&quot;background-color: transparent;&quot;&gt;&lt;font style=&quot;color: rgb(0, 0, 0);&quot;&gt;//Константы - состояния:&lt;/font&gt;&lt;/span&gt;&lt;/div&gt;&lt;div&gt;&lt;font style=&quot;color: rgb(0, 0, 0);&quot;&gt;&lt;br&gt;&lt;/font&gt;&lt;/div&gt;&lt;div style=&quot;text-align: left;&quot;&gt;&lt;div style=&quot;background-color: rgb(255, 255, 255); font-family: Consolas, &amp;quot;Courier New&amp;quot;, monospace; line-height: 27px; white-space: pre;&quot;&gt;&lt;div style=&quot;&quot;&gt;&lt;div style=&quot;line-height: 27px;&quot;&gt;&lt;div style=&quot;&quot;&gt;&lt;font style=&quot;color: rgb(0, 0, 0);&quot;&gt;#define OPEN_CAR_GATE &amp;nbsp; &amp;nbsp; &amp;nbsp; &amp;nbsp; &amp;nbsp; 0&lt;/font&gt;&lt;/div&gt;&lt;div style=&quot;&quot;&gt;&lt;font style=&quot;color: rgb(0, 0, 0);&quot;&gt;#define WAIT_CAR &amp;nbsp; &amp;nbsp; &amp;nbsp; &amp;nbsp; &amp;nbsp; &amp;nbsp; &amp;nbsp; &amp;nbsp;1&lt;/font&gt;&lt;/div&gt;&lt;div style=&quot;&quot;&gt;&lt;font style=&quot;color: rgb(0, 0, 0);&quot;&gt;#define WAIT_CAR_PASS &amp;nbsp; &amp;nbsp; &amp;nbsp; &amp;nbsp; &amp;nbsp; 2&lt;/font&gt;&lt;/div&gt;&lt;div style=&quot;&quot;&gt;&lt;font style=&quot;color: rgb(0, 0, 0);&quot;&gt;#define WAIT_AFTER_CAR_PASS &amp;nbsp; &amp;nbsp; 3&lt;/font&gt;&lt;/div&gt;&lt;div style=&quot;&quot;&gt;&lt;font style=&quot;color: rgb(0, 0, 0);&quot;&gt;#define CLOSE_CAR_GATE &amp;nbsp; &amp;nbsp; &amp;nbsp; &amp;nbsp; &amp;nbsp;4&lt;/font&gt;&lt;/div&gt;&lt;/div&gt;&lt;/div&gt;&lt;div style=&quot;&quot;&gt;&lt;font style=&quot;color: rgb(0, 0, 0);&quot;&gt;&lt;span&gt;&lt;br&gt;&lt;/span&gt;&lt;/font&gt;&lt;/div&gt;&lt;div style=&quot;&quot;&gt;&lt;font style=&quot;color: rgb(0, 0, 0);&quot;&gt;&lt;span&gt;&lt;br&gt;&lt;/span&gt;&lt;/font&gt;&lt;/div&gt;&lt;div style=&quot;&quot;&gt;&lt;font style=&quot;color: rgb(0, 0, 0);&quot;&gt;&lt;span&gt;//Глобальные переменные:&amp;nbsp; &lt;/span&gt;&lt;/font&gt;&lt;/div&gt;&lt;div style=&quot;&quot;&gt;&lt;font style=&quot;color: rgb(0, 0, 0);&quot;&gt;&lt;span&gt;int state //&amp;nbsp;    - Хранит код текущего состояния системы&lt;/span&gt;&lt;/font&gt;&lt;/div&gt;&lt;div style=&quot;&quot;&gt;&lt;font style=&quot;color: rgb(0, 0, 0);&quot;&gt;&lt;span&gt;&lt;br&gt;&lt;/span&gt;&lt;/font&gt;&lt;/div&gt;&lt;div style=&quot;&quot;&gt;&lt;font style=&quot;color: rgb(0, 0, 0);&quot;&gt;&lt;div&gt;&lt;font style=&quot;color: rgb(0, 0, 0);&quot;&gt;//Функции управления электроникой&lt;/font&gt;&lt;/div&gt;&lt;div&gt;&lt;font style=&quot;color: rgb(0, 0, 0);&quot;&gt;&lt;span style=&quot;text-align: center; background-color: rgb(251, 251, 251);&quot;&gt;checkPIR&lt;/span&gt;&lt;span style=&quot;text-align: center; background-color: rgb(251, 251, 251);&quot;&gt;(); //   - Возвращает результаты измерения датчика  &lt;/span&gt;&lt;/font&gt;&lt;/div&gt;&lt;div&gt;&lt;font style=&quot;color: rgb(0, 0, 0);&quot;&gt;&lt;span style=&quot;text-align: center; background-color: rgb(251, 251, 251);&quot;&gt;close_sens(); // - Возвращает состояние концевика&lt;/span&gt;&lt;/font&gt;&lt;/div&gt;&lt;/font&gt;&lt;/div&gt;&lt;/div&gt;&lt;/div&gt;" style="text;html=1;align=center;verticalAlign=middle;whiteSpace=wrap;rounded=0;" parent="1" vertex="1">
          <mxGeometry x="-1548" y="6084" width="433" height="432" as="geometry" />
        </mxCell>
        <mxCell id="6P8dWXz_ZmytROIsNSV3-168" value="" style="shape=curlyBracket;whiteSpace=wrap;html=1;rounded=1;labelPosition=left;verticalLabelPosition=middle;align=right;verticalAlign=middle;" parent="1" vertex="1">
          <mxGeometry x="-1548" y="8970" width="37" height="420" as="geometry" />
        </mxCell>
        <mxCell id="6P8dWXz_ZmytROIsNSV3-169" value="&lt;div style=&quot;text-align: left;&quot;&gt;&lt;span style=&quot;background-color: transparent;&quot;&gt;&lt;font style=&quot;color: rgb(0, 0, 0);&quot;&gt;//Константы - состояния:&lt;/font&gt;&lt;/span&gt;&lt;/div&gt;&lt;div&gt;&lt;font style=&quot;color: rgb(0, 0, 0);&quot;&gt;&lt;br&gt;&lt;/font&gt;&lt;/div&gt;&lt;div style=&quot;text-align: left;&quot;&gt;&lt;div style=&quot;font-family: Consolas, &amp;quot;Courier New&amp;quot;, monospace; line-height: 27px; white-space: pre;&quot;&gt;&lt;div style=&quot;background-color: light-dark(rgb(255, 255, 255), rgb(18, 18, 18));&quot;&gt;&lt;font style=&quot;color: rgb(0, 0, 0);&quot;&gt;&lt;span&gt;#define&lt;/span&gt; &lt;span&gt;PREPARATION_ST&lt;/span&gt; &lt;span style=&quot;white-space: pre;&quot;&gt;&#x9;&lt;/span&gt;&lt;span style=&quot;white-space: pre;&quot;&gt;&#x9;&lt;span style=&quot;white-space: pre;&quot;&gt;&#x9;&lt;/span&gt;&lt;/span&gt;&lt;span&gt;0&lt;/span&gt;&lt;/font&gt;&lt;/div&gt;&lt;div style=&quot;background-color: light-dark(rgb(255, 255, 255), rgb(18, 18, 18));&quot;&gt;&lt;font style=&quot;color: rgb(0, 0, 0);&quot;&gt;&lt;span&gt;#define&lt;/span&gt; &lt;span&gt;GETTING_DATA_ST&lt;/span&gt; &lt;span style=&quot;white-space: pre;&quot;&gt;&#x9;&lt;span style=&quot;white-space: pre;&quot;&gt;&#x9;&lt;/span&gt;&lt;/span&gt;&lt;span&gt;1&lt;/span&gt;&lt;/font&gt;&lt;/div&gt;&lt;div style=&quot;background-color: light-dark(rgb(255, 255, 255), rgb(18, 18, 18));&quot;&gt;&lt;font style=&quot;color: rgb(0, 0, 0);&quot;&gt;&lt;span&gt;#define&lt;/span&gt; &lt;span&gt;PSWD_CHECK_ST&lt;/span&gt; &lt;span style=&quot;white-space: pre;&quot;&gt;&#x9;&lt;/span&gt;&lt;span style=&quot;white-space: pre;&quot;&gt;&#x9;&lt;span style=&quot;white-space: pre;&quot;&gt;&#x9;&lt;/span&gt;&lt;/span&gt;&lt;span&gt;2&lt;/span&gt;&lt;/font&gt;&lt;/div&gt;&lt;div style=&quot;background-color: light-dark(rgb(255, 255, 255), rgb(18, 18, 18));&quot;&gt;&lt;font style=&quot;color: rgb(0, 0, 0);&quot;&gt;&lt;span&gt;#define&lt;/span&gt; &lt;span&gt;HUMGATE_UNAVAILABLE_ST&lt;/span&gt; &lt;span style=&quot;white-space: pre;&quot;&gt;&#x9;&lt;span style=&quot;white-space: pre;&quot;&gt;&#x9;&lt;/span&gt;&lt;/span&gt;&lt;span&gt;3&lt;/span&gt;&lt;/font&gt;&lt;/div&gt;&lt;div style=&quot;background-color: light-dark(rgb(255, 255, 255), rgb(18, 18, 18));&quot;&gt;&lt;font style=&quot;color: rgb(0, 0, 0);&quot;&gt;&lt;span&gt;#define&lt;/span&gt; &lt;span&gt;HUMGATE_AVAILABLE_ST&lt;/span&gt; &lt;span style=&quot;white-space: pre;&quot;&gt;&#x9;&lt;span style=&quot;white-space: pre;&quot;&gt;&#x9;&lt;/span&gt;&lt;/span&gt;&lt;span&gt;4&lt;/span&gt;&lt;/font&gt;&lt;/div&gt;&lt;div style=&quot;background-color: light-dark(rgb(255, 255, 255), rgb(18, 18, 18));&quot;&gt;&lt;font style=&quot;color: rgb(0, 0, 0);&quot;&gt;&lt;span&gt;#define&lt;/span&gt; &lt;span&gt;SERVER_WAIT_STATUS_ST&lt;/span&gt; &lt;span style=&quot;white-space: pre;&quot;&gt;&#x9;&lt;span style=&quot;white-space: pre;&quot;&gt;&#x9;&lt;/span&gt;&lt;/span&gt;&lt;span&gt;5&lt;/span&gt;&lt;span&gt; &amp;nbsp; &amp;nbsp; &lt;/span&gt;&lt;/font&gt;&lt;/div&gt;&lt;div style=&quot;background-color: light-dark(rgb(255, 255, 255), rgb(18, 18, 18));&quot;&gt;&lt;font style=&quot;color: rgb(0, 0, 0);&quot;&gt;&lt;span&gt;#define&lt;/span&gt; &lt;span&gt;CARGATE_UNAVAILABLE_ST&lt;/span&gt; &lt;span style=&quot;white-space: pre;&quot;&gt;&#x9;&lt;span style=&quot;white-space: pre;&quot;&gt;&#x9;&lt;/span&gt;&lt;/span&gt;&lt;span&gt;6&lt;/span&gt;&lt;span&gt; &amp;nbsp;&lt;/span&gt;&lt;/font&gt;&lt;/div&gt;&lt;div style=&quot;background-color: light-dark(rgb(255, 255, 255), rgb(18, 18, 18));&quot;&gt;&lt;font style=&quot;color: rgb(0, 0, 0);&quot;&gt;&lt;span&gt;#define&lt;/span&gt; &lt;span&gt;CARGATE_AVAILABLE_ST&lt;/span&gt; &lt;span style=&quot;white-space: pre;&quot;&gt;&#x9;&lt;span style=&quot;white-space: pre;&quot;&gt;&#x9;&lt;/span&gt;&lt;/span&gt;&lt;span&gt;7&lt;/span&gt;&lt;span&gt; &lt;/span&gt;&lt;/font&gt;&lt;/div&gt;&lt;div style=&quot;background-color: light-dark(rgb(255, 255, 255), rgb(18, 18, 18));&quot;&gt;&lt;font style=&quot;color: rgb(0, 0, 0);&quot;&gt;&lt;span&gt;&lt;br&gt;&lt;/span&gt;&lt;/font&gt;&lt;/div&gt;&lt;div style=&quot;background-color: light-dark(rgb(255, 255, 255), rgb(18, 18, 18));&quot;&gt;&lt;font style=&quot;color: rgb(0, 0, 0);&quot;&gt;&lt;span&gt;&lt;br&gt;&lt;/span&gt;&lt;/font&gt;&lt;/div&gt;&lt;div style=&quot;background-color: light-dark(rgb(255, 255, 255), rgb(18, 18, 18));&quot;&gt;&lt;font style=&quot;color: rgb(0, 0, 0);&quot;&gt;&lt;span&gt;&lt;br&gt;&lt;/span&gt;&lt;/font&gt;&lt;/div&gt;&lt;div style=&quot;background-color: light-dark(rgb(255, 255, 255), rgb(18, 18, 18));&quot;&gt;&lt;font style=&quot;color: rgb(0, 0, 0);&quot;&gt;&lt;span&gt;//Глобальные переменные:&amp;nbsp; &lt;/span&gt;&lt;/font&gt;&lt;/div&gt;&lt;div style=&quot;background-color: light-dark(rgb(255, 255, 255), rgb(18, 18, 18));&quot;&gt;&lt;font style=&quot;color: rgb(0, 0, 0);&quot;&gt;&lt;span&gt;int state //&amp;nbsp;- Хранит код текущего состояния системы&lt;/span&gt;&lt;/font&gt;&lt;/div&gt;&lt;div style=&quot;&quot;&gt;&lt;font style=&quot;color: rgb(0, 0, 0);&quot;&gt;&lt;div style=&quot;line-height: 27px;&quot;&gt;String correctPassword // - Хранить верный пароль&lt;/div&gt;&lt;/font&gt;&lt;/div&gt;&lt;div style=&quot;background-color: light-dark(rgb(255, 255, 255), rgb(18, 18, 18));&quot;&gt;&lt;font style=&quot;color: rgb(0, 0, 0);&quot;&gt;&lt;span&gt;&lt;br&gt;&lt;/span&gt;&lt;/font&gt;&lt;/div&gt;&lt;/div&gt;&lt;/div&gt;" style="text;html=1;align=center;verticalAlign=middle;whiteSpace=wrap;rounded=0;" parent="1" vertex="1">
          <mxGeometry x="-1535" y="8958" width="433" height="468" as="geometry" />
        </mxCell>
      </root>
    </mxGraphModel>
  </diagram>
</mxfile>
